<svg width="24" height="17" viewBox="0 0 24 17" fill="none" xmlns="http://www.w3.org/2000/svg">
<path d="M2 7C1.17157 7 0.5 7.67157 0.5 8.5C0.5 9.32843 1.17157 10 2 10V7ZM22.5 8.5L23.6389 9.47619C24.134 8.89852 24.1183 8.04164 23.6022 7.48258L22.5 8.5ZM15.3611 14.5238C14.822 15.1528 14.8948 16.0998 15.5238 16.6389C16.1528 17.178 17.0998 17.1052 17.6389 16.4762L15.3611 14.5238ZM17.6022 0.98258C17.0403 0.373849 16.0913 0.335889 15.4826 0.897795C14.8738 1.4597 14.8359 2.40869 15.3978 3.01742L17.6022 0.98258ZM2 10H22.5V7H2V10ZM21.3611 7.52381L15.3611 14.5238L17.6389 16.4762L23.6389 9.47619L21.3611 7.52381ZM23.6022 7.48258L17.6022 0.98258L15.3978 3.01742L21.3978 9.51742L23.6022 7.48258Z" fill="white"/>
</svg>
