<svg width="26" height="20" viewBox="0 0 26 20" fill="none" xmlns="http://www.w3.org/2000/svg">
<path d="M13.0312 5.15234L5.125 11.6836V18.6875C5.125 19.0742 5.42578 19.375 5.8125 19.375H10.625C10.9688 19.375 11.2695 19.0742 11.2695 18.6875V14.5625C11.2695 14.2188 11.6133 13.875 11.957 13.875H14.707C15.0938 13.875 15.3945 14.2188 15.3945 14.5625V18.6875C15.3945 19.0742 15.7383 19.375 16.082 19.375H20.9375C21.2812 19.375 21.625 19.0742 21.625 18.6875V11.6406L13.6758 5.15234C13.5898 5.06641 13.4609 5.02344 13.375 5.02344C13.2461 5.02344 13.1172 5.06641 13.0312 5.15234ZM25.5352 9.57812L21.9688 6.61328V0.683594C21.9688 0.382812 21.7109 0.167969 21.4531 0.167969H19.0469C18.7461 0.167969 18.5312 0.382812 18.5312 0.683594V3.77734L14.6641 0.597656C14.3203 0.339844 13.8477 0.167969 13.375 0.167969C12.8594 0.167969 12.3867 0.339844 12.043 0.597656L1.17188 9.57812C1.04297 9.66406 0.957031 9.83594 0.957031 9.96484C0.957031 10.0938 1.04297 10.2227 1.08594 10.3086L2.20312 11.6406C2.28906 11.7695 2.41797 11.8125 2.58984 11.8125C2.71875 11.8125 2.84766 11.7695 2.93359 11.6836L13.0312 3.39062C13.1172 3.30469 13.2461 3.26172 13.375 3.26172C13.4609 3.26172 13.5898 3.30469 13.6758 3.39062L23.7734 11.6836C23.8594 11.7695 23.9883 11.8125 24.1172 11.8125C24.2891 11.8125 24.418 11.7695 24.5039 11.6406L25.6211 10.3086C25.707 10.2227 25.75 10.0938 25.75 9.96484C25.75 9.83594 25.6641 9.66406 25.5352 9.57812Z" fill="white"/>
</svg>
