<svg width="20" height="20" viewBox="0 0 20 20" fill="none" xmlns="http://www.w3.org/2000/svg">
<circle cx="10" cy="10" r="9.5" stroke="#DF4848"/>
<path d="M10.6 14H8.7875V7.2375H10.6V14ZM8.68125 5.4875C8.68125 5.21667 8.77083 4.99375 8.95 4.81875C9.13333 4.64375 9.38125 4.55625 9.69375 4.55625C10.0021 4.55625 10.2479 4.64375 10.4313 4.81875C10.6146 4.99375 10.7063 5.21667 10.7063 5.4875C10.7063 5.7625 10.6125 5.9875 10.425 6.1625C10.2417 6.3375 9.99792 6.425 9.69375 6.425C9.38958 6.425 9.14375 6.3375 8.95625 6.1625C8.77292 5.9875 8.68125 5.7625 8.68125 5.4875Z" fill="#DF4848"/>
</svg>
