<svg width="287" height="249" viewBox="0 0 287 249" fill="none" xmlns="http://www.w3.org/2000/svg">
<path d="M53.6875 55.7969L57.5156 35.5625H63.3555L57.0469 64H51.1484L46.5195 44.9766L41.8906 64H35.9922L29.6836 35.5625H35.5234L39.3711 55.7578L44.0586 35.5625H49.0195L53.6875 55.7969Z" fill="#242549" fill-opacity="0.5"/>
<path d="M91.6484 25.6758H80.3984V33.293H93.6016V38H74.5391V9.5625H93.5625V14.3086H80.3984V21.0859H91.6484V25.6758Z" fill="#242549" fill-opacity="0.5"/>
<path d="M252.648 51.6758H241.398V59.293H254.602V64H235.539V35.5625H254.562V40.3086H241.398V47.0859H252.648V51.6758Z" fill="#242549" fill-opacity="0.5"/>
<path d="M114.398 59.293H126.84V64H108.539V35.5625H114.398V59.293Z" fill="#242549" fill-opacity="0.5"/>
<path d="M153.863 28.5273C153.642 31.5872 152.509 33.9961 150.465 35.7539C148.434 37.5117 145.751 38.3906 142.418 38.3906C138.772 38.3906 135.901 37.1667 133.805 34.7188C131.721 32.2578 130.68 28.8854 130.68 24.6016V22.8633C130.68 20.1289 131.161 17.7201 132.125 15.6367C133.089 13.5534 134.462 11.9583 136.246 10.8516C138.043 9.73177 140.126 9.17188 142.496 9.17188C145.777 9.17188 148.421 10.0508 150.426 11.8086C152.431 13.5664 153.59 16.0339 153.902 19.2109H148.043C147.9 17.375 147.385 16.0469 146.5 15.2266C145.628 14.3932 144.293 13.9766 142.496 13.9766C140.543 13.9766 139.078 14.6797 138.102 16.0859C137.138 17.4792 136.643 19.6471 136.617 22.5898V24.7383C136.617 27.8112 137.079 30.0573 138.004 31.4766C138.941 32.8958 140.413 33.6055 142.418 33.6055C144.228 33.6055 145.576 33.1953 146.461 32.375C147.359 31.5417 147.874 30.2591 148.004 28.5273H153.863Z" fill="#242549" fill-opacity="0.5"/>
<path d="M184.898 50.4258C184.898 53.2253 184.404 55.6797 183.414 57.7891C182.424 59.8984 181.005 61.526 179.156 62.6719C177.32 63.8177 175.211 64.3906 172.828 64.3906C170.471 64.3906 168.368 63.8242 166.52 62.6914C164.671 61.5586 163.238 59.944 162.223 57.8477C161.207 55.7383 160.693 53.3164 160.68 50.582V49.1758C160.68 46.3763 161.181 43.9154 162.184 41.793C163.199 39.6576 164.625 38.0234 166.461 36.8906C168.31 35.7448 170.419 35.1719 172.789 35.1719C175.159 35.1719 177.262 35.7448 179.098 36.8906C180.947 38.0234 182.372 39.6576 183.375 41.793C184.391 43.9154 184.898 46.3698 184.898 49.1562V50.4258ZM178.961 49.1367C178.961 46.1549 178.427 43.8893 177.359 42.3398C176.292 40.7904 174.768 40.0156 172.789 40.0156C170.823 40.0156 169.306 40.7839 168.238 42.3203C167.171 43.8438 166.63 46.0833 166.617 49.0391V50.4258C166.617 53.3294 167.151 55.582 168.219 57.1836C169.286 58.7852 170.823 59.5859 172.828 59.5859C174.794 59.5859 176.305 58.8177 177.359 57.2812C178.414 55.7318 178.948 53.4792 178.961 50.5234V49.1367Z" fill="#242549" fill-opacity="0.5"/>
<path d="M198.195 8.5625L205.5 29.1875L212.766 8.5625H220.461V37H214.582V29.2266L215.168 15.8086L207.492 37H203.469L195.812 15.8281L196.398 29.2266V37H190.539V8.5625H198.195Z" fill="#242549" fill-opacity="0.5"/>
<g filter="url(#filter0_d)">
<path d="M237.47 235.912C235.913 235.912 234.347 235.852 232.764 235.704C226.715 235.138 220.584 234.856 214.565 234.049C200.753 232.198 186.934 232.088 173.02 232.088C167.496 232.088 161.972 232.036 156.448 232.036C148.407 232.036 140.368 232.146 132.342 232.684C119.823 233.523 107.283 233.657 94.7405 233.657C92.8471 233.657 90.9527 233.654 89.0592 233.649C88.9384 233.649 88.8176 233.649 88.6968 233.649C81.7507 233.649 74.8319 234.077 67.8964 234.38C60.9304 234.684 54.1572 235.184 47.2316 235.184C46.6072 235.184 45.9805 235.179 45.3533 235.171C38.4335 235.075 27.8969 233.057 22.9603 227.912C20.0292 224.855 20.4266 217.501 23.3621 214.553C24.6445 213.266 26.7116 212.258 28.4 211.644C33.2106 209.896 38.106 209.892 43.1324 209.856C43.1943 209.855 43.2556 209.855 43.3174 209.855C46.7857 209.855 50.3922 210.555 53.7165 211.528C56.7409 212.412 59.8309 212.723 62.907 213.274C65.4243 213.724 68.1174 213.94 70.781 213.94C72.5137 213.94 74.2346 213.849 75.8852 213.671C80.3514 213.191 84.8495 212.967 89.3288 212.589C94.8908 212.119 100.334 211.099 105.877 210.553C108.652 210.279 111.362 209.601 114.131 209.293C121.474 208.475 128.829 208.298 136.185 208.276C136.782 208.274 137.378 208.273 137.974 208.273C141.476 208.273 144.978 208.3 148.478 208.3C151.325 208.3 154.17 208.291 157.016 208.291C166.752 208.291 176.479 208.391 186.188 209.275C189.197 209.549 192.187 209.384 195.154 210.035C198.133 210.69 201.14 211.287 204.192 211.404C206.803 211.504 209.421 211.536 212.043 211.536C216.707 211.536 221.38 211.432 226.028 211.416C226.494 211.414 227.143 211.411 227.947 211.411C238.354 211.411 274.594 211.89 271.995 221.574C270.996 225.295 265.188 230.139 261.929 231.698C257.814 233.668 253.313 234.833 248.782 235.226C244.963 235.557 241.241 235.912 237.47 235.912Z" fill="#F6EAEA"/>
<path d="M37.1255 118.004C42.6091 116.922 43.6678 111.035 43.7753 110.326C43.7837 110.278 43.7743 110.234 43.7524 110.19L43.3978 109.483L42.1308 106.96L40.8654 104.436L40.5111 103.729C40.4884 103.685 40.4587 103.651 40.4143 103.629C39.7834 103.292 34.4332 100.627 30.2926 104.385C30.1384 104.525 30.2313 104.783 30.4403 104.795C31.3581 104.848 33.2007 105.003 34.0554 105.418C34.2511 105.513 34.206 105.807 33.9925 105.857C32.7718 106.144 29.5287 107.188 27.8682 110.4C25.7967 114.405 26.3688 114.885 26.3688 114.885L26.4544 114.842L26.3688 114.885C26.3688 114.885 26.4165 115.633 30.8582 116.36C34.4228 116.944 37.1957 114.962 38.1546 114.153C38.3221 114.012 38.5856 114.151 38.5441 114.366C38.3664 115.299 37.3909 116.872 36.8842 117.641C36.7702 117.815 36.921 118.043 37.1255 118.004Z" fill="#D67086"/>
<path d="M38.9013 115.244C42.7956 114.595 43.3633 110.126 43.4181 109.588C43.4226 109.551 43.4147 109.517 43.3978 109.483L42.1308 106.96L40.8654 104.436C40.8482 104.402 40.8252 104.376 40.7939 104.356C40.3292 104.078 36.4096 101.867 33.5641 104.608C33.4582 104.708 33.5328 104.909 33.6836 104.925C34.3427 104.995 35.6681 105.174 36.2938 105.519C36.438 105.598 36.414 105.821 36.264 105.853C35.3981 106.033 33.1075 106.726 32.0211 109.129C30.6665 112.124 31.0928 112.51 31.0928 112.51C31.0928 112.51 31.1424 113.014 33.7916 113.654C33.9683 113.697 34.1569 113.74 34.3565 113.784C36.9301 114.346 38.8525 112.92 39.5149 112.333C39.6297 112.23 39.8236 112.345 39.8006 112.508C39.703 113.216 39.055 114.387 38.7168 114.959C38.6412 115.089 38.7559 115.268 38.9013 115.244" fill="#EED5D5"/>
<path d="M53.5352 119.418C58.5509 116.244 60.067 110.614 60.4401 108.773L47.9373 111.283C47.9859 111.276 48.0347 111.268 48.0829 111.259C48.0905 111.294 48.0923 111.33 48.0999 111.364C48.0143 114.513 46.1232 118.953 45.0908 120.805C43.8599 123.016 47.4826 123.249 53.5352 119.418Z" fill="#CCAF5D"/>
<path d="M43.8925 106.033C43.8729 105.995 43.8559 105.959 43.8374 105.919L43.8306 105.922C41.9993 102.219 42.0614 100.295 42.1856 99.6141C41.4467 100.323 40.6875 101.055 39.9006 101.81C39.9006 101.81 39.2282 103.333 41.2432 107.363C43.2579 111.393 44.8894 111.788 44.8894 111.788C45.939 111.613 46.9519 111.447 47.9373 111.283L48.0086 111.269L48.0044 111.267L48.0138 111.265C47.3803 110.94 45.7747 109.799 43.8925 106.033Z" fill="#292949"/>
<path d="M53.5383 119.412C58.5545 116.238 60.0701 110.608 60.4435 108.768L47.9405 111.278C47.9887 111.27 48.038 111.262 48.0863 111.253C48.0944 111.288 48.0957 111.324 48.1035 111.359C48.0177 114.507 46.1266 118.947 45.095 120.799C43.863 123.01 47.4865 123.243 53.5383 119.412" fill="#292949"/>
<path d="M72.0383 103.3C73.1842 102.456 74.2245 101.608 75.1692 100.764C81.7804 94.8675 83.72 89.2213 84.2246 87.2539C83.8888 86.9414 83.6031 86.5694 83.3732 86.1475L83.3646 86.1516L83.3354 86.1018C83.3211 86.0735 83.3036 86.0477 83.2895 86.0189C83.1105 85.6605 82.9902 85.2901 82.9161 84.9152C81.1743 84.2221 76.8043 82.8884 70.2675 83.6079C68.0686 83.8503 65.6257 84.3245 62.9548 85.1343C58.6558 86.4388 55.1528 88.4376 51.6642 91.1282L51.6475 91.1196L45.6207 96.4982L42.2135 99.5381L42.2378 99.5637L42.1856 99.6141C42.0666 100.269 42.0069 102.074 43.6297 105.503C43.7111 105.679 43.7949 105.855 43.8873 106.039C45.7708 109.803 47.3751 110.945 48.0086 111.269L60.4406 108.772L60.4409 108.77L60.4451 108.769L60.4456 108.768C64.7015 107.582 68.4114 105.972 72.0383 103.3" fill="#5D66D3"/>
<path d="M87.3537 85.1751C87.9968 84.5747 88.1982 84.0906 88.0735 83.8411L88.0466 83.81L88.0453 83.8111C87.935 83.6512 87.6513 83.5496 87.1984 83.5577C87.0153 83.5608 86.8081 83.5807 86.5696 83.623C85.7178 83.7758 84.2809 84.2842 82.9615 84.9313L82.9161 84.9151C82.9902 85.289 83.1102 85.6613 83.2887 86.0192C83.3036 86.0477 83.321 86.0735 83.3359 86.1017C83.5692 86.5461 83.8708 86.933 84.2193 87.2583L84.2212 87.2507L84.2246 87.2538L84.2272 87.2429C85.3799 86.6464 86.4848 85.9194 87.1449 85.3574C87.2188 85.295 87.2916 85.2333 87.3537 85.1751" fill="#292949"/>
<path d="M72.689 91.3889C71.1695 88.6079 67.7002 87.5141 64.8289 88.952C61.8928 90.426 60.6929 93.9886 62.159 96.9141C63.6198 99.8391 67.1896 101.017 70.1266 99.5433C70.6784 99.2672 71.1687 98.9166 71.5911 98.5101C73.4266 96.7545 73.9972 93.9518 72.8082 91.5723C72.7751 91.5057 72.7284 91.4535 72.6921 91.3874L72.689 91.3889" fill="#D67086"/>
<path d="M83.331 86.1313L83.3265 86.1234L83.319 86.1104L83.302 86.0798L83.2991 86.0748L83.331 86.056L83.3521 86.0937L83.3631 86.1132L83.331 86.1313" fill="#A2A4A7"/>
<path d="M66.0515 120.618C66.0515 120.618 67.8241 121.51 68.1278 126.188C68.4312 130.865 69.5163 133.737 69.5163 133.737C69.5163 133.737 68.1226 134.79 66.8363 134.336C65.5503 133.883 65.0955 133.836 65.1088 131.905C65.1224 129.975 64.014 121.028 64.014 121.028L66.0515 120.618Z" fill="#292949"/>
<path d="M62.6748 122.977C64.4933 123.064 66.1973 124.352 66.7805 126.082C67.5217 124.997 67.6999 123.547 67.2436 122.314C66.7872 121.08 65.7086 120.097 64.4409 119.759C63.5047 120.562 62.9047 121.747 62.8092 122.979L62.6748 122.977Z" fill="#292949"/>
<path d="M60.4719 134.04L54.7948 136.125L50.6725 139.874L50.5869 123.063L45.4412 123.863L43.7375 143.261L49.2215 147.907L60.2577 144.152L60.4719 134.04Z" fill="#D67086"/>
<path d="M53.1753 218.538L52.9917 220.007L55.6154 221.906L57.2025 220.652L55.9822 218.968L53.3588 217.069L53.1753 218.538Z" fill="#292949"/>
<path d="M54.3035 173.527L53.7465 177.988L57.3836 193.444L53.0874 218.042L55.7988 219.052L63.5757 195.121L64.885 188.137L65.1934 173.294L54.3035 173.527Z" fill="#3B3387"/>
<path d="M75.2109 179.008L68.4852 220.236L65.8717 220.174L66.0267 193.649L61.7089 174.926L75.2109 179.008" fill="#3B3387"/>
<path d="M65.8947 219.848L65.8595 221.334L68.6506 222.886L70.0989 221.434L68.7208 219.915L65.8947 219.848" fill="#292949"/>
<path d="M54.5775 168.045C57.1647 153.051 56.6259 142.073 56.8127 139.067C56.9992 136.061 59.0949 134.548 59.0959 134.547C60.0041 134.362 60.8046 133.784 61.7225 133.57C67.9318 132.124 71.1843 137.037 73.3718 142.306C76.0665 148.797 78.3017 155.492 80.0753 162.31C81.6319 168.293 83.1911 174.33 83.7573 180.515C83.9911 183.067 84.1789 185.486 81.4362 186.545C77.0655 188.232 72.2021 188.078 67.6167 188.543C62.3497 189.078 57.0796 189.435 51.7878 189.536C49.0251 189.588 51.9903 183.04 54.5775 168.045" fill="#D67086"/>
<path d="M46.0377 123.835L43.7782 121.46L44.6629 117.401L46.8961 117.454L47.4693 121.021L48.5867 121.73L48.546 123.445L46.0377 123.835" fill="#DDC8AC"/>
<path d="M64.7195 133.332L70.6067 134.525L82.4173 146.518L96.4873 146.325L97.1732 150.685L80.6825 153.19L67.3552 144.188L64.7195 133.332" fill="#D67086"/>
<path d="M66.1694 133.681L66.8801 149.709L59.0458 134.304L61.4556 133.506L63.1747 133.033L66.1694 133.681Z" fill="white"/>
<path d="M96.6183 147.412L99.2425 145.863L102.543 146.773L102.501 148.554L96.9418 149.469L96.6183 147.412" fill="#DDC8AC"/>
<path d="M66.6743 124.499C64.7425 120.01 59.0831 122.127 58.2552 126.298C57.7846 128.67 58.9487 132.839 61.7877 132.945C61.9213 133.351 62.1485 134.117 62.5269 134.324C62.9367 134.548 63.9519 134.02 64.353 133.827C64.4644 133.773 64.5794 133.712 64.6454 133.608C64.7279 133.477 64.6817 133.186 64.6131 132.869C64.9186 132.778 65.2231 132.646 65.5231 132.467C66.7815 131.716 67.4836 130.234 67.5838 128.769C67.6837 127.303 67.2548 125.849 66.6743 124.499" fill="#DDC8AC"/>
<path d="M64.3258 119.772C64.3258 119.772 65.4576 122.188 62.3708 123.62C59.2843 125.052 57.7446 128.066 58.9036 130.625C60.0623 133.183 62.9018 134.624 61.7898 135.614C60.6778 136.605 55.8653 136.94 55.8653 136.94C55.8653 136.94 50.9318 128.108 53.8261 123.16C56.7206 118.211 62.19 116.839 64.3258 119.772" fill="#292949"/>
<path d="M89.6656 217.589L89.4276 219.439L92.886 221.765L94.9717 220.153L93.3614 218.064L89.903 215.738L89.6656 217.589" fill="#292949"/>
<path d="M89.5484 216.967L92.2154 193.369L89.0065 166.949L89.7282 161.33L104.061 160.784L104.578 169.931L102.172 193.405L93.12 218.173L89.5484 216.967" fill="#B5B7B8"/>
<path d="M101.082 135.051L108.436 136.38L125.43 140.427L124.35 146.13L106.976 145.868L101.082 135.051" fill="#292949"/>
<path d="M114.578 163.429L114.616 187.244L109.829 217.9L106.383 217.866L104.489 189.515L100.056 161.14L114.578 163.429Z" fill="#B5B7B8"/>
<path d="M106.388 219.321L110.096 221.224L111.977 219.377L110.133 217.493L106.407 217.456L106.388 219.321" fill="#292949"/>
<path d="M86.4767 173.327C86.4193 172.296 86.4016 171.433 86.3828 171.126C86.2153 168.362 86.22 165.589 86.3256 162.82C86.4201 160.339 86.2774 154.214 86.4838 151.738C86.6541 149.694 87.4212 144.563 88.1298 142.619C89.892 137.784 89.1847 137.414 98.5878 135.2C102.709 134.23 103.923 136.748 107.597 139.444C107.96 139.71 108.095 141.471 108.214 141.93C108.423 142.738 108.642 143.544 108.882 144.344C109.071 144.973 109.273 145.599 109.493 146.218L109.493 146.218C109.493 146.218 113.498 159.021 115.635 161.627C117.772 164.234 122.025 167.766 115.684 170.707C114.557 171.184 113.421 171.644 112.23 171.94C112.23 171.94 106.824 171.814 104.072 172.076C101.537 172.317 99.0137 172.797 96.558 173.446C94.9156 173.872 93.2497 174.426 91.8264 175.337C90.4686 176.206 89.5372 177.39 88.1611 178.287C88.0307 178.372 87.8874 178.461 87.7301 178.453C86.8908 178.411 86.597 175.497 86.4767 173.327" fill="#292949"/>
<path d="M98.598 136.321C98.2195 136.704 97.1703 137.156 95.8961 137.102C95.6393 137.091 95.4116 136.925 95.3309 136.681C95.1053 135.995 94.926 135.294 94.7943 134.583C93.85 134.577 92.7237 134.467 92.2741 133.636C92.1325 133.374 92.0829 133.074 92.0354 132.78C91.8395 131.564 91.6433 130.349 91.4473 129.134C91.3792 128.713 91.3119 128.28 91.4105 127.866C91.5838 127.139 92.228 126.625 92.8818 126.265C94.5498 125.346 96.6151 125.065 98.3904 125.754C98.8629 125.938 99.3218 126.196 99.6383 126.592C100.126 127.203 100.204 128.036 100.263 128.816C100.316 129.536 100.37 130.256 100.424 130.977C100.485 131.805 100.494 132.768 99.8614 133.304C99.525 133.589 99.0515 133.703 98.777 134.048C98.293 134.656 98.6933 135.55 98.598 136.321" fill="#E1CFB5"/>
<path d="M104.907 121.355C104.983 121.008 105.076 120.667 105.197 120.335C105.459 119.617 105.854 118.943 106.006 118.193C106.158 117.444 105.996 116.554 105.36 116.132C104.949 115.859 104.426 115.832 103.933 115.854C102.311 115.928 100.711 116.446 99.3529 117.338C98.0595 118.187 96.9963 119.222 95.3863 119.18C93.8732 119.141 92.9752 119.679 91.7458 120.662C90.4157 121.726 88.4239 122.554 87.314 123.792C86.8503 124.309 86.5646 124.966 86.3974 125.64C85.8184 127.975 86.7165 130.611 88.6 132.106C89.0227 132.441 89.4863 132.721 89.9609 132.977C90.9432 133.508 92.1285 134.173 93.2113 134.121C92.9321 133.232 91.1754 130.728 91.6033 129.773C92.2825 128.257 94.8456 127.822 96.2739 127.645C97.8312 127.453 99.4791 128.037 100.994 127.761C102.084 127.563 103.231 126.599 103.928 125.76C104.788 124.723 104.631 122.619 104.907 121.355" fill="#292949"/>
<path d="M142.146 176.459L141.892 181.286C141.809 182.854 140.504 184.06 138.977 183.979L126.623 183.326C125.096 183.245 123.925 181.909 124.007 180.341L124.262 175.514L142.146 176.459" fill="#666666"/>
<path d="M106.667 109.587C107.562 92.6043 121.699 79.5459 138.242 80.4203C154.785 81.2947 167.471 95.7709 166.575 112.753C166.257 118.788 164.265 124.327 161.089 128.921L161.09 128.922C152 142.819 149.44 154.725 149.44 154.725L134.367 153.929L119.294 153.132C119.294 153.132 118.001 141.021 110.421 126.243L110.422 126.244C107.747 121.339 106.349 115.622 106.667 109.587" fill="#8CABEF"/>
<path d="M149.787 154.744L148.706 175.25C148.661 176.107 147.964 176.766 147.149 176.723L119.259 175.249C118.444 175.206 117.821 174.477 117.865 173.62L118.947 153.114L149.787 154.744" fill="#B0B0B0"/>
<path d="M149.44 154.725L134.367 153.929L132.96 153.854L134.367 153.929L149.44 154.725C149.44 154.725 149.446 154.698 149.458 154.643C149.459 154.643 149.459 154.643 149.459 154.643C149.447 154.692 149.44 154.725 149.44 154.725Z" fill="#DDDDDD"/>
<path d="M149.44 154.725L134.367 153.929L132.96 153.854L119.294 153.132C119.29 153.1 117.99 141.002 110.421 126.243L110.422 126.244C107.998 121.799 106.622 116.687 106.622 111.276C106.622 110.716 106.637 110.153 106.667 109.587C106.771 107.618 107.06 105.705 107.503 103.858C114.306 119.53 127.838 143.9 149.459 154.643C149.446 154.698 149.44 154.725 149.44 154.725" fill="#839BD1"/>
<path d="M132.96 153.854L119.294 153.132L132.96 153.854Z" fill="#9F9F9F"/>
<path d="M157.367 128.22C159.785 124.398 161.29 119.896 161.547 115.024C162.328 100.197 151.254 87.5595 136.811 86.7962C136.353 86.7719 135.896 86.7601 135.443 86.7601C127.538 86.7601 120.369 90.3928 115.529 96.1813C120.235 88.7417 128.4 83.8782 137.547 83.8782C138.001 83.8782 138.456 83.89 138.915 83.9143C153.358 84.6777 164.432 97.3156 163.651 112.142C163.326 118.302 161.004 123.87 157.367 128.22Z" fill="#839BD1"/>
<path d="M140.192 154.236L145.895 115.067L140.612 119.116L136.578 111.708L131.741 118.418L126.987 114.031L128.542 153.621L126.995 153.539L125.299 110.34L131.513 116.075L136.761 108.797L141.102 116.768L147.974 111.501L141.739 154.318L140.192 154.236" fill="#474EBB"/>
<path d="M142.308 150.412L141.739 154.318L140.192 154.236L140.894 149.411C141.361 149.751 141.832 150.085 142.308 150.412Z" fill="#414BAA"/>
<path d="M127.902 137.32L128.542 153.621L126.995 153.539L126.283 135.402C126.813 136.047 127.353 136.686 127.902 137.32Z" fill="#414BAA"/>
<path d="M118.479 161.992L149.319 163.622L149.519 159.835L118.678 158.205L118.479 161.992Z" fill="#7F7F7F"/>
<path d="M118.052 170.08L148.893 171.71L149.093 167.923L118.252 166.293L118.052 170.08Z" fill="#7F7F7F"/>
<path d="M132.184 167.029L118.252 166.293L118.479 161.992L127.073 162.447C128.785 164.174 130.497 165.693 132.184 167.029" fill="#8E8E8E"/>
<path d="M118.678 158.205L118.947 153.114L119.432 153.139C120.752 155.064 122.096 156.833 123.452 158.458L118.678 158.205Z" fill="#8E8E8E"/>
<path d="M147.149 176.723L119.259 175.249C118.444 175.206 117.821 174.477 117.866 173.62L118.052 170.08L138.19 171.144C142.162 173.466 145.777 174.831 148.634 175.635C148.434 176.294 147.836 176.76 147.149 176.723" fill="#8E8E8E"/>
<path d="M127.073 162.447L118.479 161.992L118.678 158.205L123.452 158.458C124.653 159.896 125.863 161.225 127.073 162.447Z" fill="#666666"/>
<path d="M138.19 171.144L118.052 170.079L118.252 166.293L132.184 167.029C134.239 168.657 136.257 170.014 138.19 171.144" fill="#666666"/>
<path d="M124.107 178.446C127.404 182.068 134.013 183.46 136.201 183.833L126.624 183.326C125.096 183.245 123.925 181.909 124.007 180.341L124.107 178.446" fill="#4E4E4E"/>
<path d="M138.087 75.8825L137.287 75.86C136.848 75.8474 136.503 75.4814 136.515 75.042L136.745 66.8868C136.758 66.4477 137.123 66.1018 137.562 66.114L138.362 66.1365C138.8 66.149 139.146 66.5151 139.134 66.9545L138.904 75.1097C138.891 75.5488 138.526 75.895 138.087 75.8825Z" fill="#474EBB"/>
<path d="M124.746 77.3277L123.965 77.7924C123.614 78.0017 123.159 77.8862 122.95 77.5341L118.729 70.4296C118.52 70.0777 118.636 69.6226 118.987 69.4131L119.768 68.9483C120.119 68.7388 120.574 68.8546 120.783 69.2065L125.004 76.3109C125.213 76.6631 125.097 77.1181 124.746 77.3277Z" fill="#474EBB"/>
<path d="M150.925 78.1057L151.56 78.5341C151.932 78.7852 152.436 78.6867 152.687 78.3144L157.222 71.5781C157.472 71.2058 157.374 70.7003 157.002 70.4495L156.368 70.021C155.996 69.77 155.491 69.8685 155.24 70.2408L150.706 76.9771C150.455 77.3494 150.554 77.8549 150.925 78.1057" fill="#474EBB"/>
<path d="M120.494 150.748L124.743 150.977L127.227 148.113L125.872 146.979L123.026 147.979L122.229 147.435L119.333 148.547C119.333 148.547 120.551 150.748 120.494 150.748" fill="#E1CFB5"/>
<path d="M94.1156 138.848L108.208 150.85L120.256 148.061L122.095 151.55L107.998 158.008L103.276 156.542L91.1387 144.661L94.1156 138.848" fill="#292949"/>
<path d="M249.562 96.9023C249.476 97.0097 249.319 97.0262 249.212 96.9394C247.985 95.9454 246.445 95.4892 244.875 95.6546C243.306 95.8202 241.895 96.5878 240.902 97.8159C239.91 99.0443 239.454 100.586 239.619 102.158C239.634 102.295 239.534 102.418 239.397 102.432L239.37 102.434C239.244 102.433 239.136 102.338 239.123 102.21C238.944 100.506 239.438 98.8338 240.515 97.5016C241.591 96.1698 243.121 95.3372 244.823 95.1577C246.525 94.978 248.195 95.473 249.525 96.551C249.633 96.6377 249.649 96.7952 249.562 96.9023V96.9023ZM228.795 102.311C228.768 102.321 228.74 102.325 228.712 102.325C228.61 102.325 228.513 102.26 228.478 102.157C227.524 99.4072 224.535 97.9353 221.784 98.8421L221.749 98.8531L221.701 98.8682C221.572 98.9137 221.429 98.8445 221.384 98.7141C221.359 98.6428 221.37 98.5681 221.405 98.5075C220.899 96.3352 219.295 94.5482 217.185 93.8217C213.794 92.6544 210.087 94.4667 208.921 97.8619C208.876 97.9925 208.734 98.062 208.604 98.0171C208.474 97.9722 208.404 97.83 208.449 97.6997C209.704 94.0437 213.696 92.0922 217.347 93.3493C219.587 94.1203 221.296 96.0002 221.867 98.2938C224.808 97.4614 227.934 99.0652 228.949 101.993C228.994 102.124 228.925 102.266 228.795 102.311V102.311ZM256.458 89.7125C256.469 85.0774 252.727 81.3102 248.097 81.2971C247.472 81.2955 246.534 81.6344 245.959 81.3C245.479 81.0207 245.302 80.3553 244.933 79.9634C244.483 79.4856 243.969 79.0681 243.409 78.7269C242.279 78.039 240.969 77.6725 239.647 77.6689C238.567 77.666 237.541 77.8993 236.618 78.3188L236.603 78.3262L236.599 78.3275C236.54 78.3544 236.482 78.3818 236.424 78.4103L236.416 78.4032C235.674 78.7303 232.95 80.1392 232.725 83.2364C234.329 83.1849 235.94 83.8043 237.102 85.0583C238.282 83.9005 239.983 83.391 241.608 83.727C242.913 83.9966 244.036 84.7589 244.768 85.8739C245.501 86.9884 245.756 88.3221 245.486 89.6291C245.462 89.7472 245.358 89.8287 245.242 89.8282L245.191 89.823C245.057 89.7953 244.97 89.6631 244.998 89.528C245.498 87.1 243.932 84.7174 241.508 84.2163C239.962 83.8968 238.341 84.425 237.278 85.5939C237.185 85.6958 237.027 85.7031 236.926 85.6101L236.891 85.5717C235.031 83.3793 231.738 83.106 229.544 84.9648C229.438 85.0539 229.281 85.0408 229.192 84.9353C229.103 84.83 229.116 84.6724 229.221 84.5834C230.104 83.8351 231.15 83.4036 232.221 83.2742C232.411 80.1068 234.972 78.5469 236.006 78.0435C234.28 76.6064 232.063 75.7382 229.643 75.7314C226.061 75.7215 222.916 77.5973 221.139 80.4235C220.542 80.2923 219.922 80.2205 219.286 80.2187C216.156 80.2098 213.201 81.9353 211.663 84.6641C211.275 85.3525 211.018 86.0725 210.807 86.8301C210.779 86.9323 210.744 87.0237 210.705 87.107C212.506 86.4369 215.018 85.9395 217.772 86.699C217.905 86.7358 217.983 86.8732 217.946 87.0062C217.91 87.1392 217.773 87.2173 217.64 87.1807C211.898 85.5975 207.151 89.6801 207.103 89.7216C207.067 89.7532 207.025 89.7723 206.981 89.7799C206.364 90.2653 205.795 90.8082 205.311 91.4503C203.874 93.3574 203.087 95.7082 203.081 98.0965C203.064 104.228 208.014 109.213 214.139 109.23C214.829 109.232 215.562 108.84 216.233 109.068C215.872 108.073 215.67 106.823 216.077 105.509C216.117 105.377 216.257 105.303 216.389 105.344C216.52 105.385 216.594 105.525 216.553 105.657C215.712 108.372 217.816 110.899 217.837 110.924C217.864 110.955 217.88 110.991 217.889 111.027C218.257 111.487 218.656 111.847 219.187 112.175C220.634 113.068 222.325 113.553 224.025 113.558C225.465 113.562 226.829 113.235 228.045 112.651L228.093 112.615C231.814 110.528 232.369 106.4 232.374 106.359C232.391 106.222 232.515 106.124 232.653 106.142C232.789 106.159 232.886 106.283 232.869 106.42C232.85 106.58 232.401 109.955 229.519 112.256C231.244 114.247 233.785 115.511 236.624 115.519C238.006 115.523 239.441 115.12 240.749 114.609C242.128 114.069 243.128 116.121 243.653 117.004C244.424 118.305 244.844 119.904 245.944 120.99C247.53 122.556 249.252 121.163 249.439 119.249C249.547 118.154 249.516 117.053 249.388 115.961C249.326 115.424 249.214 114.806 249.458 114.296C249.749 113.687 250.304 113.783 250.884 113.646C251.999 113.383 253.049 112.868 253.942 112.151C255.757 110.693 256.837 108.451 256.844 106.121C256.846 105.218 256.693 104.352 256.412 103.546C256.032 103.709 255.257 103.983 254.194 104.055C254.028 104.066 253.849 104.073 253.661 104.072C252.288 104.068 250.368 103.697 248.254 102.196C248.141 102.117 248.115 101.961 248.194 101.848C248.274 101.735 248.43 101.709 248.542 101.789C252.901 104.882 256.397 103.004 256.432 102.985C256.455 102.972 256.479 102.965 256.503 102.96C258.978 101.798 260.695 99.2844 260.703 96.366C260.712 93.4157 258.97 90.8711 256.458 89.7125" fill="#D67086"/>
<path d="M195.029 137.879L192.381 136.087L193.096 134.92L195.181 135.746L195.264 135.037L197.343 136.847L196.763 138.16L195.029 137.879Z" fill="#A39372"/>
<path d="M220.859 133.991L210.37 140.794L196.844 135.998L195.825 138.662L210.542 147.869L225.243 142.434L220.859 133.991" fill="#3B3387"/>
<path d="M221.076 217.741V219.243L217.229 221.169L215.305 219.243L217.229 217.317H217.477L217.539 217.741H221.076Z" fill="#292949"/>
<path d="M221.076 217.741H217.539L217.477 217.317H221.076V217.741Z" fill="#292949"/>
<path d="M226.426 132.933C230.56 133.182 234.798 135.353 235.984 139.383C236.082 139.715 236.158 140.055 236.186 140.399C236.351 142.47 235.719 144 236.316 146.08C236.834 147.887 237.304 149.721 237.649 151.57C238.148 154.246 238.61 156.91 238.973 159.567C239.375 162.51 239.658 165.444 239.74 168.361C239.75 168.683 239.814 169.585 239.851 170.662C239.927 172.919 239.878 175.937 238.929 176.05C238.752 176.071 238.58 175.992 238.424 175.916C237.203 175.323 236.242 174.547 235.165 173.87C234.787 173.632 234.394 173.405 233.971 173.204C233.123 172.799 232.218 172.491 231.289 172.247C232.851 172.329 233.045 172.039 233.045 172.039C233.045 172.039 231.636 166.372 230.646 161.441C230.136 158.901 229.738 156.556 229.701 155.284C229.591 151.459 229.103 138.826 229.103 138.826L226.731 133.994L226.294 133.998C226.325 133.995 226.357 133.991 226.388 133.987C226.344 133.575 226.363 133.232 226.426 132.933" fill="#3B3387"/>
<path d="M208.838 173.539C209.081 171.034 209.333 168.53 209.641 166.032C210.255 161.05 211.09 156.08 212.504 151.257C213.044 149.414 213.667 147.598 214.29 145.781C215.048 143.57 215.807 141.358 216.565 139.147C217.508 136.398 219.099 134.462 221.885 133.5C222.382 133.329 222.906 133.196 223.446 133.099C223.459 133.156 223.471 133.214 223.478 133.274C223.51 133.538 223.586 133.831 223.752 134.023L221.924 134.04C221.924 134.04 216.766 152.091 216.576 155.202C216.504 156.385 216.264 158.966 215.998 161.686C215.576 165.99 215.086 170.64 215.086 170.64C215.086 170.64 217.351 170.694 220.627 170.938C220.385 170.933 220.142 170.926 219.9 170.924C217.621 170.904 215.258 171.873 213.076 172.502C212.92 172.547 212.764 172.591 212.609 172.632C211.72 172.868 210.997 173.516 210.259 174.025C209.168 174.776 208.69 175.074 208.838 173.539" fill="#3B3387"/>
<path d="M213.076 171.866C215.258 171.237 217.621 170.268 219.9 170.288C220.142 170.29 220.385 170.297 220.627 170.302C220.83 170.317 221.036 170.333 221.247 170.35C222.774 170.471 224.49 170.633 226.281 170.847C226.369 170.857 226.456 170.867 226.544 170.878C228.835 171.369 230.323 171.561 231.289 171.611C232.218 171.855 233.123 172.163 233.971 172.568C234.394 172.77 234.787 172.996 235.165 173.234L235.177 175.685L230.81 217.317H227.228V217.741H227.208L223.27 189.816L223.254 189.659L221.096 217.741H221.076V217.317H217.477L212.913 186.046L213.076 171.866" fill="#3B3387"/>
<path d="M230.81 217.317H231.075L232.999 219.243L231.075 221.169L227.228 219.243V217.741H230.765L230.81 217.317" fill="#292949"/>
<path d="M230.809 217.317L230.765 217.741H227.228V217.317H230.809Z" fill="#292949"/>
<path d="M215.086 170.64C215.086 170.64 217.351 170.694 220.627 170.938C220.83 170.953 221.036 170.969 221.247 170.986C222.774 171.107 224.49 171.268 226.281 171.482C226.369 171.493 226.456 171.503 226.544 171.514C228.835 172.005 230.323 172.197 231.289 172.247C232.851 172.329 233.045 172.039 233.045 172.039C233.045 172.039 231.636 166.372 230.646 161.442C230.136 158.901 229.738 156.556 229.701 155.284C229.592 151.459 229.103 138.826 229.103 138.826L226.731 133.994L226.294 133.998C225.689 134.07 225.085 134.141 224.48 134.213C224.324 134.232 224.162 134.249 224.013 134.2C223.938 134.175 223.872 134.137 223.816 134.088L223.752 134.023L221.924 134.04C221.924 134.04 216.766 152.091 216.576 155.202C216.504 156.385 216.264 158.966 215.998 161.686C215.576 165.99 215.086 170.64 215.086 170.64" fill="white"/>
<path d="M220.55 127.347C220.669 126.86 220.441 126.364 220.333 125.874C220.306 125.75 220.301 125.622 220.308 125.493C221.177 125.342 222.054 125.019 222.693 124.74C224.022 124.159 226.61 123.54 227.991 124.226C229.082 124.769 228.747 126.499 228.692 127.594C228.678 127.875 228.656 128.161 228.721 128.435C228.787 128.717 228.963 128.907 229.072 129.144C228.95 129.57 228.751 129.975 228.426 130.342C227.552 131.331 226.662 131.817 226.426 132.933C226.363 133.232 226.344 133.575 226.388 133.987C226.357 133.991 226.325 133.995 226.294 133.998C225.689 134.07 225.085 134.141 224.48 134.213C224.324 134.232 224.162 134.249 224.013 134.2C223.938 134.175 223.873 134.137 223.816 134.088L223.752 134.023C223.586 133.831 223.51 133.539 223.478 133.274C223.471 133.214 223.459 133.156 223.446 133.099C223.209 132.081 222.086 131.622 221.48 130.718C220.794 129.694 220.435 128.501 220.28 127.286L220.272 127.224C220.36 127.272 220.453 127.314 220.55 127.347" fill="#E1CFB5"/>
<path d="M216.206 121.57C216.167 122.824 217.113 124.861 218.278 125.372C218.504 125.472 218.754 125.53 219.019 125.558C219.264 126.238 219.673 126.896 220.272 127.224C220.36 127.272 220.453 127.314 220.55 127.347C220.669 126.86 220.441 126.364 220.333 125.874C220.306 125.75 220.301 125.622 220.308 125.493C221.177 125.342 222.054 125.019 222.693 124.74C224.022 124.159 226.611 123.54 227.991 124.226C229.082 124.769 228.747 126.499 228.692 127.594C228.678 127.875 228.656 128.161 228.721 128.435C228.788 128.717 228.963 128.907 229.072 129.144C229.11 129.227 229.14 129.315 229.155 129.415C230.048 129.013 230.589 128.004 231.094 127.184C231.346 126.773 231.582 126.345 231.768 125.879C232.598 123.798 232.292 120.992 231.018 118.997C230.65 118.42 230.201 117.903 229.674 117.582C228.413 116.811 226.656 116.74 225.297 116.212C223.385 115.469 222.413 116.139 220.608 116.719C219.886 116.951 219.056 117.153 218.674 117.837C218.463 118.215 218.432 118.682 218.219 119.059C217.945 119.544 217.424 119.798 216.972 120.103C216.448 120.458 216.225 120.982 216.206 121.57" fill="#292949"/>
<path d="M250.107 120.54L250.575 117.374L249.233 117.115L248.433 119.212L247.854 118.794L247.784 121.552L249.143 122.011L250.107 120.54" fill="#E1CFB5"/>
<path d="M229.799 136.989L241.893 133.838L247.495 120.61L250.146 121.658L246.988 138.743L233.057 145.929L229.799 136.989Z" fill="#3B3387"/>
<path d="M200.788 218.229L200.957 219.894L197.802 221.896L195.971 220.401L197.464 218.568L200.619 216.566L200.788 218.229Z" fill="#292949"/>
<path d="M200.91 167.466L201.423 172.52L196.917 195.105L200.908 217.676L197.678 218.671L187.236 191.835L186.663 183.631L188.078 166.636L200.91 167.466" fill="#292949"/>
<path d="M176.435 169.187L176.331 190.537L180.534 218.036L183.623 218.015L185.404 192.604L189.461 167.177L176.435 169.187Z" fill="#292949"/>
<path d="M183.614 219.32L180.285 221.015L178.603 219.354L180.262 217.67L183.603 217.647L183.614 219.32" fill="#292949"/>
<path d="M173.831 166.054C176.06 159.141 176.298 151.882 176.946 144.681C177.138 142.556 177.342 140.385 178.225 138.443C179.24 136.214 180.917 135.037 182.87 134.395C185.356 133.576 188.291 133.623 190.876 133.466C193.329 133.388 195.498 142.621 198.001 147.097C199.534 149.84 201.114 152.266 202.148 155.258C203.141 158.129 204.094 161.051 204.672 164.039C205.544 168.55 207.774 171.7 205.644 173.235C205.449 173.299 205.261 173.363 205.082 173.427C201.589 174.68 197.974 175.608 194.292 176.095C191.027 176.526 187.711 176.604 184.431 176.281C179.943 175.838 175.594 175.203 171.638 172.859C172.369 170.591 173.1 168.322 173.831 166.054" fill="#DDDAE8"/>
<path d="M156.784 127.678L170.603 120.758L196.137 171.882L182.317 178.802L156.784 127.678Z" fill="#474EBB"/>
<path d="M170.603 120.758L157.523 111.861L156.784 127.678L170.603 120.758Z" fill="#E1CFB5"/>
<path d="M162.43 115.199L157.523 111.861L157.245 117.796L162.43 115.199Z" fill="#292949"/>
<path d="M187.601 184.783L197.861 179.646C198.844 179.154 199.242 177.957 198.751 176.973L196.137 171.882L182.317 178.802L184.931 183.893C185.423 184.877 186.618 185.276 187.601 184.783Z" fill="#B5B7B8"/>
<path d="M182.317 178.802L196.137 171.882L194.844 169.295L180.971 176.107L182.317 178.802Z" fill="white"/>
<path d="M191.645 161.498L189.138 163.728L188.14 162.696L189.519 160.789L188.821 160.521L191.198 158.874L192.381 159.806L191.645 161.498Z" fill="#A39372"/>
<path d="M192.302 142.744L196.632 147.918L190.207 159.162L192.647 160.891L205.814 148.304L195.569 133.761L192.302 142.744Z" fill="#DDDAE8"/>
<path d="M192.076 126.594C190.679 122.37 184.522 120.899 183.091 125.808C182.661 127.283 182.402 128.848 182.694 130.357C182.987 131.866 183.907 133.313 185.312 133.932L185.337 133.942C185.282 134.333 185.227 134.725 185.172 135.116C185.16 135.201 185.15 135.293 185.198 135.364C185.251 135.444 185.358 135.465 185.454 135.48C185.92 135.549 186.387 135.619 186.854 135.689C187.085 135.723 187.326 135.757 187.55 135.686C188.037 135.529 188.24 134.944 188.261 134.432C188.267 134.309 188.265 134.186 188.263 134.061C191.026 133.114 192.989 129.355 192.076 126.594" fill="#A39372"/>
<path d="M184.575 119.381C183.448 119.213 182.488 120.307 181.448 120.882C180.582 121.36 179.602 121.487 178.705 121.883C177.808 122.28 176.926 123.107 176.907 124.142C175.999 123.669 175.014 123.183 173.996 123.38C172.978 123.576 172.032 124.793 172.438 125.797C172.801 126.696 173.972 126.907 174.361 127.792C174.978 129.191 173.312 131.364 174.449 132.292C174.722 132.515 175.094 132.569 175.363 132.799C175.696 133.084 175.803 133.574 175.951 134.01C176.625 135.984 178.612 137.274 180.576 137.01C181.796 136.437 182.77 135.254 183.206 133.9C183.732 132.267 182.859 131.697 182.713 130.165C182.551 128.49 183.083 126.716 184.137 125.415C184.822 124.569 185.802 123.839 186.839 123.74C187.26 123.7 187.127 124.052 187.601 123.725C187.805 123.585 188.083 123.056 188.14 122.802C187.006 121.889 186.058 119.602 184.575 119.381" fill="#292949"/>
<path d="M196.767 121.553C197.349 121.715 197.98 121.691 198.534 121.934C199.367 122.3 199.316 123.164 199.552 123.916C199.813 124.747 200.192 125.864 200.739 126.511C201.134 126.977 201.687 127.243 202.168 127.602C202.649 127.962 203.091 128.493 203.081 129.142C203.071 129.756 202.659 130.308 202.598 130.921C202.524 131.836 202.683 132.304 202.401 133.239C202.256 133.721 202.093 134.232 201.731 134.561C201.255 134.995 200.576 134.987 199.98 134.887C199.384 134.787 198.768 134.621 198.18 134.819C196.905 135.249 197.143 136.54 196.804 137.622C196.287 139.268 194.381 140.229 192.922 139.644C191.685 139.147 190.969 137.709 191.025 136.29C191.053 135.579 191.336 134.917 191.356 134.205C191.376 133.519 190.99 132.57 191.611 132.025C191.762 131.892 191.956 131.822 192.092 131.671C192.202 131.549 192.263 131.385 192.301 131.222C192.433 130.655 192.309 130.036 191.975 129.602C191.735 129.29 191.391 129.062 191.244 128.686C191.075 128.255 191.209 127.75 191.237 127.274C191.306 126.122 190.677 124.992 189.718 124.547C189.087 124.254 188.518 124.081 187.966 123.635C187.882 123.567 186.626 122.455 186.593 122.695C186.649 122.278 186.893 121.912 187.14 121.576C187.546 121.025 187.997 120.488 188.569 120.158C190.417 119.09 190.507 121.571 191.991 121.245C192.349 121.166 192.618 120.838 192.941 120.641C193.549 120.271 194.297 120.403 194.919 120.681C195.542 120.959 196.112 121.37 196.767 121.553" fill="#292949"/>
<path d="M172.341 160.244L174.164 159.854L176.448 161.606L174.722 163.622L172.996 162.21L172.341 160.244" fill="#A39372"/>
<path d="M32.7819 96.192C34.865 96.4721 39.4904 97.5991 42.0734 99.3913C42.1183 99.4425 42.1684 99.488 42.2135 99.5381L51.6475 91.1196C50.0131 90.3374 44.5515 88.1134 38.9501 90.2543C32.2601 92.8109 30.2761 95.855 32.7819 96.192" fill="#292949"/>
</g>
<defs>
<filter id="filter0_d" x="-4" y="40" width="295" height="217" filterUnits="userSpaceOnUse" color-interpolation-filters="sRGB">
<feFlood flood-opacity="0" result="BackgroundImageFix"/>
<feColorMatrix in="SourceAlpha" type="matrix" values="0 0 0 0 0 0 0 0 0 0 0 0 0 0 0 0 0 0 127 0"/>
<feOffset dy="4"/>
<feGaussianBlur stdDeviation="2"/>
<feColorMatrix type="matrix" values="0 0 0 0 0 0 0 0 0 0 0 0 0 0 0 0 0 0 0.25 0"/>
<feBlend mode="normal" in2="BackgroundImageFix" result="effect1_dropShadow"/>
<feBlend mode="normal" in="SourceGraphic" in2="effect1_dropShadow" result="shape"/>
</filter>
</defs>
</svg>
