<svg width="172" height="125" viewBox="0 0 172 125" fill="none" xmlns="http://www.w3.org/2000/svg">
<g filter="url(#filter0_d)">
<path d="M93.3971 114.25C89.4179 114.25 85.4386 114.154 81.4604 114.058C75.4206 113.912 69.3806 113.767 63.3405 113.621C49.8123 113.295 36.2839 112.969 22.7556 112.643C18.4553 112.539 16.5963 110.4 20.64 108.75C22.2649 108.087 24.7595 107.935 27.1883 107.935C29.152 107.935 31.0724 108.034 32.4554 108.044C42.3084 108.11 51.4291 108.22 60.2302 108.329L60.3537 110.141L62.772 110.053L63.0699 108.365C65.2902 108.392 67.4951 108.42 69.6867 108.446L69.7776 109.327L71.9948 109.131L72.0709 108.474C80.0261 108.567 87.8707 108.642 95.9284 108.666L95.9963 109.507L98.7259 108.935L98.7591 108.673C99.6033 108.674 100.448 108.675 101.299 108.675C109.926 108.675 118.877 108.609 128.531 108.437C131.382 108.387 135.338 108.207 139.493 108.207C143.66 108.207 148.025 108.388 151.673 109.062C154.739 109.629 151.539 112.817 148.42 112.817C148.415 112.817 148.41 112.817 148.405 112.817C142.73 112.797 136.647 112.681 131.057 112.681C126.653 112.681 122.555 112.753 119.207 113.001C111.747 113.554 104.282 114.107 96.8027 114.224C95.6675 114.242 94.5323 114.25 93.3971 114.25" fill="#C6B6BC"/>
<path d="M26.2093 105.724L26.2159 108.513L24.5958 108.517L24.5885 105.424L26.2093 105.724" fill="#EDD3B8"/>
<path d="M32.8709 105.239L33.1911 108.253L34.9416 108.068L34.5867 104.726L32.8709 105.239Z" fill="#EDD3B8"/>
<path d="M34.9168 107.967L33.3434 108.319L32.8428 108.769L32.8115 109.958L36.9074 110.717C37.3034 110.238 37.1407 109.514 36.5777 109.25L36.3919 109.163L34.9168 107.967" fill="#292949"/>
<path d="M26.1712 108.326L24.5509 108.323L23.9833 109.068L24.0965 110.252L28.2544 110.509L28.3737 110.239C28.6081 109.709 28.2677 109.102 27.6926 109.026L27.6005 109.013L26.1712 108.326Z" fill="#292949"/>
<path d="M20.3159 79.4578L21.889 93.5475L22.5143 107.362L27.851 107.381L29.9862 69.6175L21.3849 69.7524L20.3159 79.4578" fill="#8CABEF"/>
<path d="M36.2385 77.5824L37.3961 91.3272L35.9305 107.338L30.7486 107.183L30.0008 91.6811L29.1236 79.1444L28.2274 69.8L34.4319 69.622L36.2385 77.5824" fill="#8CABEF"/>
<path d="M31.7612 48.2909L25.7448 48.5108L22.5546 51.3689L20.5843 61.9192L19.4919 70.9565L33.5562 71.0198L37.0647 70.1326L35.9617 60.6595L34.2148 51.5997L31.7612 48.2909" fill="#474EBB"/>
<path d="M26.2411 39.3214C26.9125 38.6153 27.8763 38.1958 28.851 38.1855C32.2328 38.1494 32.5599 41.4316 31.9843 44.0023C31.7307 45.1352 31.1981 46.2523 30.2709 46.9517C30.0191 47.1417 29.7341 47.2917 29.4339 47.3986L29.4345 47.4002C29.4902 47.5741 29.5243 49.6925 29.6737 49.6691C28.8907 49.7909 28.0762 49.7055 27.3353 49.4236C27.3453 48.7911 27.2479 48.0144 27.2951 47.3302C27.1998 47.2827 27.1063 47.2308 27.0173 47.1689C26.0985 46.5309 25.7797 45.3366 25.5872 44.2352C25.3372 42.8044 25.1555 40.463 26.2411 39.3214" fill="#EAC5B0"/>
<path d="M26.783 40.8486C26.1418 41.6097 26.0952 42.6948 26.1268 43.6892C26.169 45.0112 26.305 46.3688 26.9099 47.5455C26.088 46.9195 25.2663 46.2934 24.4446 45.6673C24.1353 45.4319 23.8175 45.1863 23.63 44.8459C23.4409 44.5027 23.4045 44.0986 23.3782 43.7075C23.2384 41.6237 23.3365 39.3539 24.6388 37.7205C25.4613 36.6887 26.7266 36.0222 28.0432 35.927C29.118 35.8492 33.615 37.2236 31.8442 38.8956C31.3337 39.3778 30.0745 39.4531 29.4211 39.6286C28.4882 39.8792 27.4393 40.0697 26.783 40.8486" fill="#D67086"/>
<path d="M30.7015 40.3809C30.8325 40.3884 30.9684 40.3973 31.0835 40.4605C31.2203 40.5353 31.3069 40.675 31.3829 40.8111C32.4723 42.7642 32.5217 45.2594 31.5107 47.2541C33.2268 46.7039 34.5057 45.0986 34.8458 43.33C35.1859 41.5613 34.65 39.6839 33.5833 38.2323C32.5858 36.875 30.9756 35.8181 29.3019 36.0145C28.3038 36.1317 27.3686 36.7055 26.8124 37.5419C24.7121 40.7005 28.6764 40.2641 30.7015 40.3809" fill="#D67086"/>
<path d="M62.5722 110.429L62.3326 111.66L59.7507 112.487L58.8191 111.054L60.2298 110.025L62.8117 109.198L62.5722 110.429" fill="#292949"/>
<path d="M69.7665 109.045L69.8756 110.322L72.3823 111.388L73.4721 110.005L72.1641 108.833L69.7665 109.045" fill="#292949"/>
<path d="M58.8192 72.8322L57.7256 76.8019L58.2925 78.6159L58.2386 78.6097L58.9177 89.0737L60.3537 110.141L62.772 110.053L67.1158 85.43L67.432 86.5695L69.7776 109.327L71.9948 109.131L75.4304 79.4325V73.41L58.8192 72.8322" fill="#292949"/>
<path d="M68.6677 47.7606L65.8347 47.5245C59.504 46.997 59.0535 55.817 58.2322 60.2048C57.0425 66.5602 56.5192 73.0717 57.1271 79.5222C59.1181 78.4355 61.8776 78.6617 64.1411 78.5834C68.3101 78.4395 72.6245 78.3255 76.6438 78.9663C77.3944 79.0858 77.0662 73.6827 76.9142 72.6781C76.6043 70.633 76.2947 68.5878 75.9849 66.5428C75.4251 62.8467 74.8653 59.1505 74.3056 55.4545C74.2891 55.3461 74.2727 55.2377 74.2563 55.1292C74.1961 54.7313 74.0627 54.348 73.8634 53.9983L71.2393 49.3998C70.705 48.4634 69.7429 47.8502 68.6677 47.7606Z" fill="#8CABEF"/>
<path d="M68.9707 38.4367C68.7912 37.8161 68.5509 37.2175 68.2084 36.6705C67.5553 35.627 66.4683 34.7889 65.2388 34.7161C62.9773 34.5822 60.4842 36.0652 60.3429 38.4786C60.2538 40.0002 60.0908 41.6352 60.5681 43.1106C60.8142 43.8714 61.2728 44.6195 61.9142 45.1106C62.3787 45.4663 63.3393 45.5297 63.6867 45.9336C64.8247 47.2566 63.2614 47.9464 65.2854 48.8097C65.387 48.8531 65.4924 48.897 65.6028 48.8953C65.7596 48.893 65.8986 48.7995 66.0273 48.7097C66.2755 48.5359 66.5239 48.3622 66.7724 48.1886C66.8018 48.1681 66.832 48.1466 66.849 48.1152C66.8765 48.0648 66.8637 48.003 66.8493 47.9473C66.3093 45.8616 68.7036 45.1648 69.1841 43.243C69.4368 42.2319 69.5056 41.1813 69.3397 40.1586C69.2462 39.5808 69.1335 38.9997 68.9707 38.4367" fill="#EAC5B0"/>
<path d="M94.0121 42.4408C94.6944 43.123 95.4683 43.7139 96.3062 44.1927C95.525 42.6908 94.9515 41.0809 94.6073 39.4236C94.5811 39.2972 94.5467 39.1563 94.4369 39.0881C94.3345 39.0244 94.2022 39.0475 94.0852 39.0772C91.9965 39.6091 92.8226 41.2516 94.0121 42.4408" fill="#3B3387"/>
<path d="M100.043 44.5328C100.168 44.3889 100.278 44.2362 100.369 44.0844C101.63 41.9828 101.572 34.1 95.9338 35.137C90.814 36.0786 94.1162 42.1177 96.2701 44.2489C96.6782 44.653 97.1933 45.0616 97.8017 45.2373C97.9646 45.2845 97.9158 46.8689 98.06 47.1077C98.3488 47.5853 99.0315 47.7261 99.5192 47.5038C99.9418 47.3113 100.353 46.7267 100.446 46.2842C100.513 45.9641 99.9246 44.668 100.043 44.5328" fill="#EAC5B0"/>
<path d="M100.104 42.2566C100.619 42.5311 101.225 42.0867 101.574 41.62C103.011 39.703 102.983 36.8236 101.51 34.9345C100.278 33.3538 97.4026 33.1397 98.0404 35.5409C98.2665 36.3924 99.2709 37.228 99.5903 38.1384C100.047 39.4395 100.06 40.8947 100.104 42.2566" fill="#3B3387"/>
<path d="M90.3484 35.2392C88.7907 37.6197 89.2246 40.8194 88.0091 43.3911C90.257 43.2639 92.4349 42.1809 93.8924 40.4658C95.3216 38.7838 99.3873 36.0733 97.4971 33.8606C95.573 31.6084 91.713 33.1534 90.3484 35.2392" fill="#3B3387"/>
<path d="M101.325 109.087L100.91 109.597L100.728 110.145L101.978 112.033L103.159 112.487L104.482 112.373C104.482 112.373 105.049 112.166 104.709 111.712C104.368 111.259 103.461 111.032 103.461 111.032L103.594 109.507L101.325 109.087" fill="#292949"/>
<path d="M96.3921 109.144L96.2219 110.088L95.2957 111.693L95.7116 112.203L97.2615 112.071L98.2065 110.73V108.086L96.4298 108.256L96.3921 109.144" fill="#292949"/>
<path d="M94.3129 72.1049L93.3885 77.1667L95.9963 109.507L98.726 108.935L103.254 73.1877L94.3129 72.1049Z" fill="#292949"/>
<path d="M108.588 71.4403L109.115 92.2862L103.817 110.281L100.728 109.133L103.33 93.0858L100.941 71.2623L108.588 71.4403Z" fill="#292949"/>
<path d="M92.7377 50.4766C92.2429 51.5517 92.1515 52.7406 91.9879 54.0361C91.7046 56.2814 91.5646 58.5391 91.5329 60.7959C91.4958 63.4195 91.6065 66.0417 91.814 68.6553C91.9175 69.9623 92.0458 71.2675 92.1917 72.5706C92.2672 73.2456 91.9693 74.9787 92.7005 75.3339C93.1064 75.5312 93.598 75.4881 94.0574 75.4398C98.1095 75.0147 102.162 74.5895 106.214 74.1644C106.864 74.0962 107.536 74.0209 108.099 73.7095C109.106 73.1515 108.931 72.0554 109.09 71.1319C109.301 69.908 109.349 68.6655 109.324 67.4309C109.272 64.8912 108.883 62.3766 108.699 59.8462C108.503 57.1258 108.066 53.4772 107.034 50.8908C106.569 49.7983 105.915 48.7844 105.021 47.9502C103.905 46.9083 102.878 46.6456 101.374 46.3736C101.312 46.3622 101.246 46.3495 101.197 46.3106C101.145 46.2687 101.123 46.2037 101.103 46.1423C101.007 45.8495 100.911 45.5567 100.815 45.2641C100.779 45.1536 100.734 45.0328 100.625 44.9775C100.521 44.9242 100.392 44.9494 100.275 44.9758C99.2682 45.2045 98.2615 45.4333 97.2549 45.662C97.3101 45.8919 97.3657 46.1278 97.3307 46.3619C97.2955 46.5959 97.1498 46.8316 96.912 46.9158C95.882 47.2811 94.8061 48.0925 93.9737 48.8298C93.3927 49.3445 93.006 49.8937 92.7377 50.4766" fill="#D67086"/>
<path d="M121.701 43.1269C122.075 42.7427 122.388 42.3167 122.727 41.8742C122.808 41.7697 122.889 41.6627 122.932 41.538C122.984 41.3877 122.976 41.2241 122.967 41.0652C122.955 40.8342 122.942 40.6034 122.929 40.3727C122.921 40.2287 122.912 40.0823 122.863 39.9469C122.735 39.5981 122.372 39.403 122.039 39.2391C121.971 39.2056 121.899 39.1714 121.823 39.1741C121.696 39.1787 121.593 39.2895 121.556 39.4109C121.439 39.7959 121.475 39.9389 121.199 40.2995C120.964 40.6066 120.717 40.9116 120.409 41.1491C120.318 41.0084 120.34 40.8255 120.336 40.6439C120.332 40.4917 120.313 40.3122 120.18 40.237C120.004 40.137 119.793 40.3111 119.701 40.4919C119.516 40.8542 119.518 41.2794 119.433 41.6772C119.307 42.2687 118.703 43.1522 119.145 43.64C119.415 43.9366 119.863 44.1577 120.191 44.3938C120.542 44.1105 120.894 43.8272 121.245 43.5437C121.41 43.4117 121.56 43.2723 121.701 43.1269" fill="#FEE7DE"/>
<path d="M103.053 52.0574C102.612 51.6108 102.18 51.156 101.756 50.6933C100.82 49.6713 99.5492 48.2628 100.142 46.8364C100.809 45.2328 102.519 45.3511 103.786 45.9931C105.228 46.7231 108.821 50.7002 110.263 51.4302C110.263 51.4302 115.595 46.0109 118.832 42.7583C119.299 43.1186 120.294 43.4939 120.489 44.0942C120.947 45.5019 117.839 49.3845 117.092 50.4972C115.348 53.092 113.235 55.4395 110.833 57.4424C110.637 57.6058 110.423 57.7739 110.169 57.7981C109.86 57.8275 109.577 57.6388 109.327 57.4564C107.093 55.8316 104.992 54.0236 103.053 52.0574" fill="#D67086"/>
<path d="M102.203 104.185L72.1127 104.162C71.4644 104.162 70.9394 103.64 70.9397 102.997L70.9784 54.1061C70.9788 53.4631 71.5049 52.9423 72.153 52.9428L102.244 52.9661C102.892 52.9666 103.417 53.4883 103.417 54.1313L103.378 103.022C103.378 103.665 102.852 104.186 102.203 104.185" fill="#2F3789"/>
<path d="M101.64 99.425L72.6173 99.4025L72.6518 55.6606L101.674 55.6831L101.64 99.425" fill="#DDDAE8"/>
<path d="M88.8971 102.265L85.4221 102.262L85.4227 101.467L88.8977 101.47L88.8971 102.265Z" fill="white"/>
<path d="M101.64 99.425L72.6173 99.4025L72.6471 61.7325L101.64 99.425" fill="#D8D5E3"/>
<path d="M43.7146 35.0705L43.3008 16.1239C43.2975 15.9733 43.4172 15.8484 43.568 15.8452L76.8383 15.1199C76.9891 15.1166 77.1142 15.2361 77.1173 15.3867L77.531 34.3333C77.5342 34.4841 77.4147 34.6088 77.264 34.612L43.9935 35.3374C43.8428 35.3406 43.7178 35.2211 43.7146 35.0705Z" fill="#2F3789"/>
<path d="M48.3465 33.7959L47.9841 17.1953L75.3832 16.5981L75.7457 33.1988L48.3465 33.7959" fill="#F7F7F7"/>
<path d="M44.9176 27.5764L44.8299 23.5584C44.8277 23.4631 44.9034 23.3842 44.9986 23.3822L46.0861 23.3584C46.1815 23.3564 46.2605 23.4319 46.2625 23.5272L46.3502 27.5452C46.3523 27.6405 46.2767 27.7194 46.1814 27.7214L45.094 27.7452C44.9986 27.7472 44.9197 27.6717 44.9176 27.5764Z" fill="white"/>
<path d="M128.097 40.5383L112.191 43.1567C112.042 43.1813 111.902 43.0805 111.877 42.9317L107.269 14.9819C107.245 14.8331 107.346 14.6928 107.494 14.6683L123.4 12.0499C123.549 12.0253 123.69 12.1261 123.714 12.2749L128.322 40.2247C128.347 40.3734 128.246 40.5138 128.097 40.5383Z" fill="#474EBB"/>
<path d="M126.5 36.7709L112.494 39.0764L108.689 15.9944L122.695 13.6888L126.5 36.7709Z" fill="white"/>
<path d="M121.624 40.4217L118.284 40.9717C118.19 40.9872 118.101 40.9234 118.086 40.8295L117.943 39.963C117.928 39.8689 117.991 39.7801 118.085 39.7647L121.426 39.2148C121.52 39.1994 121.608 39.263 121.624 39.357L121.767 40.2236C121.782 40.3175 121.719 40.4062 121.624 40.4217" fill="white"/>
<path d="M50.3957 89.2736H29.8678C29.7169 89.2736 29.5946 89.1516 29.5946 89.0008V53.0389C29.5946 52.8881 29.7169 52.7659 29.8678 52.7659H50.3957C50.5464 52.7659 50.6687 52.8881 50.6687 53.0389V89.0008C50.6687 89.1516 50.5464 89.2736 50.3957 89.2736Z" fill="#292949"/>
<path d="M49.1057 84.2453H31.1578V54.6658H49.1057V84.2453Z" fill="white"/>
<path d="M42.3176 87.7989H37.9458C37.8504 87.7989 37.7732 87.7217 37.7732 87.6264V86.4249C37.7732 86.3295 37.8504 86.2524 37.9458 86.2524H42.3176C42.413 86.2524 42.4902 86.3295 42.4902 86.4249V87.6264C42.4902 87.7217 42.413 87.7989 42.3176 87.7989Z" fill="white"/>
<path d="M34.8891 71.3533C34.9451 71.3801 35.0034 71.3997 35.0656 71.4073C35.6571 71.4803 36.4105 71.2683 36.9845 71.1365C37.4283 71.0347 37.4855 70.4484 37.5463 70.0911C37.564 69.9872 37.579 69.8704 37.5171 69.7851C37.4813 69.7358 37.4248 69.7054 37.3676 69.6842C37.0394 69.5614 36.7176 69.7411 36.3871 69.7317C36.241 69.7275 36.0538 69.7093 35.9636 69.5762C35.7544 69.2672 36.2161 69.259 36.4058 69.1884C36.4121 68.6743 35.9894 68.7764 35.6251 68.8267C35.1749 68.8887 34.729 68.9825 34.2921 69.107C33.9525 69.2036 33.7795 69.2128 33.7189 69.5728C33.7035 69.6629 33.5128 70.4753 33.5508 70.4989C33.8607 70.6915 34.1708 70.884 34.4791 71.0791C34.6156 71.1653 34.744 71.2837 34.8891 71.3533" fill="#EAC5B0"/>
<path d="M27.5951 53.04C27.6367 53.2889 27.5822 53.5488 27.5277 53.798C27.2406 55.1078 26.9821 56.425 26.7493 57.7455C26.536 58.9556 25.9567 60.6803 26.1307 61.8981C26.2783 62.93 27.657 63.9386 28.4132 64.6998C29.3213 65.6141 30.2661 66.5028 31.3254 67.2417C31.7373 67.5289 34.3209 68.5778 34.2114 69.1416C34.0646 69.8225 33.9179 70.5028 33.7542 71.1802C33.7736 71.1 30.0722 69.6453 29.7809 69.5216C27.426 68.5209 25.4083 67.1409 23.4058 65.5214C23.0213 65.2105 22.6336 64.8839 22.3861 64.4558C22.1728 64.087 22.0764 63.6644 21.9824 63.2488C21.4891 61.0652 21.6603 58.8227 21.9056 56.6191C22.0216 55.5756 21.9707 54.3 22.2653 53.298C22.5389 52.367 23.4092 51.4288 24.0394 50.7038C24.1615 50.5634 24.2925 50.4209 24.4651 50.3513C25.4394 49.9584 26.6314 51.7127 27.1402 52.2766C27.3188 52.4745 27.5008 52.6836 27.573 52.9402C27.5822 52.9731 27.5896 53.0064 27.5951 53.04" fill="#474EBB"/>
<path d="M68.6905 40.9067C68.383 41.2983 66.9302 41.1364 66.4273 41.1645C65.8621 41.1962 65.5997 41.1683 65.5079 40.4889C65.4848 40.3166 65.4971 40.1411 65.5004 39.965C65.5148 39.9634 65.5295 39.9612 65.5451 39.9567C66.3158 39.7297 67.0978 39.5697 67.8986 39.5244C68.0803 39.5144 68.2623 39.5095 68.4443 39.5097C68.7886 39.4794 68.9109 39.6497 68.8111 40.0208C68.8275 40.3309 68.8837 40.6609 68.6905 40.9067V40.9067ZM63.3585 40.5047C63.3091 40.8991 63.2553 40.9247 62.8879 40.9544C62.6049 40.9772 62.322 41.0019 62.0396 41.0341C61.5228 41.093 61.0096 41.1755 60.4982 41.272C60.4997 40.9323 60.2861 40.0869 60.5413 39.8117C60.7773 39.5573 61.6828 39.7013 62.0126 39.7119C62.5891 39.7308 63.4672 39.6356 63.3585 40.5047V40.5047ZM69.9394 39.0847C69.7437 39.1859 69.5687 39.3667 69.4133 39.5209C69.3706 39.5631 69.3262 39.6066 69.2819 39.6511C69.2361 39.4139 69.1573 39.2188 69.0386 39.1286C68.7059 38.8755 67.9617 39.0378 67.5894 39.0675C66.8594 39.1259 66.1484 39.2667 65.4446 39.477C65.3677 39.5 65.3186 39.5509 65.2925 39.6113C65.2748 39.6253 65.2593 39.6428 65.2512 39.6659C65.1592 39.9198 65.1025 40.2417 65.0909 40.5602L65.0854 40.5586C64.7816 40.5342 64.4723 40.548 64.1676 40.5548C64.06 40.5573 63.9452 40.5495 63.8361 40.56C63.8372 40.4808 63.8358 40.3986 63.8337 40.3133C63.8215 39.8169 63.8411 39.4317 63.3213 39.3097C62.3527 39.0823 61.2206 39.1719 60.2386 39.2492C59.9795 39.2695 59.9148 39.6244 60.078 39.7331C59.8519 40.2597 60.0155 40.9884 60.0396 41.5492C60.0463 41.708 60.1611 41.8286 60.3207 41.7973C61.2914 41.6072 62.2964 41.6087 63.2588 41.4184C63.5948 41.352 63.7385 41.1761 63.7978 40.9336C63.9093 40.9508 64.0286 40.9452 64.1471 40.9498C64.4514 40.9622 64.76 40.9812 65.0643 40.9623C65.0785 40.9614 65.0895 40.9558 65.1021 40.9527C65.1143 41.0739 65.1336 41.1908 65.1636 41.2969C65.2701 41.6712 65.4931 41.6311 65.8347 41.6294C66.5934 41.6255 67.3554 41.5795 68.1131 41.5431C68.4644 41.5261 68.8935 41.5584 69.1316 41.2294C69.2666 41.043 69.3413 40.5723 69.3294 40.1181C69.4452 40.0166 69.5529 39.9039 69.6667 39.8019C69.834 39.6516 70.0276 39.5145 70.1719 39.3425C70.2927 39.1991 70.0878 39.0078 69.9394 39.0847" fill="#292949"/>
<path d="M50.1979 35.7177L48.57 36.0175L47.7611 33.3877L49.0111 32.1956L50.4499 32.5717L50.0526 33.8206L50.3578 33.7644L50.6049 33.3983L50.9683 33.652L50.1979 35.7177" fill="#EAC5B0"/>
<path d="M62.4713 52.8402C63.1593 50.4573 63.6243 48.2175 63.5863 48.2188C61.8828 48.275 60.1786 48.3331 58.4737 48.3349C57.3944 48.3359 55.864 48.8448 55.1796 48.0278C54.3082 46.9873 53.9681 44.5788 53.5148 43.2844C53.0096 41.8414 52.5042 40.3984 51.999 38.9553C51.7004 38.1022 51.1853 35.4322 50.401 35.197C50.2349 35.1474 48.2041 35.55 48.2003 35.5128C48.4042 37.7267 48.608 39.9405 48.8119 42.1542C48.9642 43.8091 49.1166 45.4639 49.2689 47.1188C49.5368 50.0269 50.3655 51.1177 52.5576 53.0238C54.7298 54.9128 57.0504 56.6217 59.3663 58.3286C60.3817 59.0769 61.6038 55.8448 62.4713 52.8402" fill="#8CABEF"/>
<path d="M97.9318 74.7205H75.1132V69.3299H97.9318V74.7205Z" fill="white"/>
<path d="M98.3689 85.7558H75.5505V80.3652H98.3689V85.7558Z" fill="white"/>
<path d="M77.9723 84.0839L77.5867 83.8017L78.0864 83.1885L77.3151 82.9767L77.4672 82.5209L78.2057 82.8031L78.1677 82.0108H78.6457L78.6077 82.7977L79.3517 82.5209L79.4984 82.9767L78.7325 83.183L79.2324 83.8017L78.8413 84.0839L78.4066 83.4219L77.9723 84.0839" fill="#D67086"/>
<path d="M81.0414 84.0839L80.6558 83.8017L81.1555 83.1885L80.3842 82.9767L80.5363 82.5209L81.2748 82.8031L81.2368 82.0108H81.7148L81.6768 82.7977L82.4208 82.5209L82.5675 82.9767L81.8016 83.183L82.3015 83.8017L81.9104 84.0839L81.4758 83.4219L81.0414 84.0839" fill="#D67086"/>
<path d="M84.1105 84.0839L83.7249 83.8017L84.2246 83.1885L83.4533 82.9767L83.6054 82.5209L84.3439 82.8031L84.3059 82.0108H84.7839L84.7458 82.7977L85.4899 82.5209L85.6366 82.9767L84.8707 83.183L85.3705 83.8017L84.9795 84.0839L84.5449 83.4219L84.1105 84.0839" fill="#D67086"/>
<path d="M87.1796 84.0839L86.794 83.8017L87.2936 83.1885L86.5224 82.9767L86.6744 82.5209L87.413 82.8031L87.375 82.0108H87.853L87.8149 82.7977L88.559 82.5209L88.7057 82.9767L87.9398 83.183L88.4396 83.8017L88.0486 84.0839L87.614 83.4219L87.1796 84.0839" fill="#D67086"/>
<path d="M139.204 108.824V109.973L136.257 111.445L134.783 109.973L136.257 108.5H136.447L136.495 108.824H139.204" fill="#292949"/>
<path d="M146.462 108.5H146.666L148.139 109.973L146.666 111.445L143.718 109.973V108.824H146.428L146.462 108.5" fill="#292949"/>
<path d="M153.422 72.3595C153.394 71.5278 153.345 70.8317 153.338 70.5828C153.275 68.3309 153.06 66.0659 152.754 63.7941C152.478 61.743 152.127 59.6864 151.747 57.62C151.152 54.3797 150.61 51.5245 149.416 48.4428C148.992 47.3483 148.557 46.2342 147.825 45.323C146.836 44.0914 144.815 43.2075 143.247 43.2609C143.219 43.3253 143.103 44.0556 143.181 44.0463C143.157 44.0491 143.134 44.052 143.11 44.0548L143.442 44.0517L145.246 47.782C145.246 47.782 145.618 57.5344 145.702 60.4874C145.729 61.4691 146.033 63.2795 146.42 65.2409C147.173 69.0469 148.245 73.4224 148.245 73.4224C148.245 73.4224 148.097 73.6459 146.909 73.5831C147.616 73.7714 148.305 74.0094 148.95 74.3214C149.272 74.4772 149.57 74.6519 149.858 74.8356C150.676 75.3586 151.408 75.957 152.336 76.4155C152.455 76.4742 152.586 76.535 152.721 76.5186C153.443 76.4316 153.48 74.1016 153.422 72.3595" fill="#2F3789"/>
<path d="M140.943 43.3609C140.532 43.4358 140.134 43.5381 139.756 43.6706C137.637 44.413 136.426 45.9077 135.71 48.0297C135.133 49.7369 134.556 51.4442 133.979 53.1516C133.505 54.5536 133.031 55.9562 132.62 57.3784C131.545 61.1017 130.909 64.9387 130.442 68.7848C130.208 70.7131 130.016 72.6464 129.832 74.5801C129.719 75.7653 130.082 75.5355 130.912 74.9556C131.474 74.5628 132.024 74.0622 132.7 73.8798C132.817 73.8481 132.936 73.8144 133.056 73.7795C134.715 73.2944 136.513 72.5459 138.246 72.5615C138.43 72.5633 138.615 72.5681 138.799 72.5725C136.307 72.3836 134.584 72.3423 134.584 72.3423C134.584 72.3423 134.957 68.7525 135.278 65.4298C135.48 63.3303 135.663 61.3372 135.718 60.4242C135.862 58.0225 139.786 44.0872 139.786 44.0872L141.176 44.0738C141.05 43.9258 140.992 43.6998 140.968 43.4961C140.962 43.4492 140.953 43.4048 140.943 43.3609" fill="#2F3789"/>
<path d="M133.056 73.7795C134.715 73.2944 136.513 72.5461 138.246 72.5616C138.43 72.5633 138.615 72.5681 138.799 72.5725C138.953 72.5842 139.11 72.5966 139.271 72.6094C140.432 72.7027 141.737 72.8273 143.1 72.9927C143.167 73.0008 143.233 73.0086 143.3 73.017C145.043 73.3959 146.174 73.5442 146.909 73.5831C147.616 73.7714 148.305 74.0094 148.95 74.3214C149.272 74.4772 149.57 74.6519 149.858 74.8356L149.867 76.7278L146.544 108.868H143.82V109.195H143.805L140.809 87.637L140.797 87.5156L139.156 109.195H139.14V108.868H136.403L132.931 84.7262L133.056 73.7795" fill="#2F3789"/>
<path d="M134.584 72.3423C134.584 72.3423 136.307 72.3836 138.799 72.5725C138.953 72.5842 139.111 72.5965 139.271 72.6094C140.432 72.7026 141.737 72.8273 143.1 72.9926C143.167 73.0008 143.233 73.0086 143.3 73.017C145.043 73.3959 146.174 73.5442 146.909 73.5831C148.097 73.6461 148.245 73.4223 148.245 73.4223C148.245 73.4223 147.173 69.0469 146.42 65.2409C146.033 63.2795 145.729 61.4692 145.702 60.4873C145.587 57.3976 145.515 54.3067 145.422 51.2166C145.376 49.6731 145.324 48.1297 145.261 46.5869C145.232 45.9022 145.35 44.9452 144.791 44.4289C143.941 43.6441 142.861 44.2277 141.886 44.1945C141.159 44.1698 140.077 43.8441 139.591 44.5928C139.292 45.0533 139.237 46.0591 139.082 46.6228C138.622 48.2958 138.17 49.9708 137.728 51.6487C136.988 54.4644 135.893 57.4989 135.718 60.4241C135.663 61.3372 135.48 63.3303 135.278 65.4298C134.957 68.7525 134.584 72.3423 134.584 72.3423" fill="white"/>
<path d="M138.655 35.1684C138.306 35.8717 138.161 36.6686 138.167 37.4563C138.169 37.6658 138.167 37.9078 138.007 38.0398C137.836 38.1813 138.007 38.4628 137.862 38.2933C137.718 38.1236 137.227 37.5341 137.195 37.3122C137.12 36.7924 137.094 36.2653 137.118 35.7405C137.138 35.2841 137.205 34.8047 137.48 34.4431C137.643 34.2288 137.867 34.0724 138.088 33.9205C138.408 33.7003 138.738 33.4778 139.115 33.3861C139.762 33.2281 140.176 33.4456 139.622 33.9394C139.225 34.2931 138.895 34.6866 138.655 35.1684" fill="#292949"/>
<path d="M143.244 43.8791C143.232 44.1364 143.184 44.3797 143.049 44.5919C142.915 44.8039 142.698 44.9491 142.479 45.0703C142.205 45.2212 141.908 45.3467 141.596 45.3633C141.284 45.3798 140.952 45.2719 140.759 45.0263C140.193 44.3064 140.193 42.76 140.124 41.8881C139.333 41.7927 138.398 41.5833 138.088 40.7628C137.991 40.5044 137.973 40.2188 137.957 39.9392C137.89 38.7836 137.823 37.628 137.756 36.4723C137.733 36.0727 137.711 35.6608 137.827 35.2827C138.031 34.6192 138.612 34.1997 139.188 33.9247C140.66 33.2228 142.413 33.1559 143.846 33.9697C144.227 34.1863 144.591 34.4714 144.825 34.8722C145.185 35.49 145.183 36.2763 145.169 37.0117C145.157 37.6905 145.144 38.3694 145.131 39.0481C145.116 39.8289 145.047 40.7305 144.473 41.1725C144.169 41.407 143.763 41.4684 143.505 41.765C143.013 42.3311 143.275 43.1598 143.244 43.8791Z" fill="#EAC5B0"/>
<path d="M140.721 40.6687C141.072 40.8833 141.429 40.8676 141.8 40.7325C141.991 40.6631 142.09 40.9887 141.899 41.0581C141.451 41.2212 141 41.2297 140.577 40.972C140.402 40.8648 140.544 40.5608 140.721 40.6687ZM137.787 40.6228C137.964 41.335 138.341 42.0042 138.938 42.3783C139.614 42.8022 140.436 42.7919 141.212 42.77C141.637 42.758 142.062 42.7459 142.486 42.7339C143.561 42.7034 144.622 42.5066 145.115 41.3291C145.343 40.7862 145.393 40.1662 145.325 39.5711C145.307 39.4075 145.278 39.2398 145.194 39.1023C145.11 38.9648 144.96 38.864 144.812 38.893C144.624 38.93 144.52 39.1441 144.405 39.3122C144.156 39.6792 143.694 39.9008 143.303 39.732C143.187 39.682 143.085 39.6026 142.984 39.5225C142.942 39.4897 142.9 39.4569 142.858 39.4256C142.438 39.1167 141.936 38.9911 141.439 38.9514C141.008 38.917 140.369 38.7897 140.07 39.177C139.896 39.4025 139.722 39.6278 139.548 39.8531C139.476 39.9459 139.403 40.0406 139.307 40.1026C139.209 40.1666 139.093 40.1919 138.979 40.1998C138.691 40.2201 138.36 40.1019 138.247 39.81C138.198 39.6828 138.197 39.5411 138.185 39.4037C138.173 39.2667 138.145 39.1217 138.057 39.0228C137.72 38.6447 137.66 39.2776 137.658 39.4926C137.654 39.8728 137.696 40.255 137.787 40.6228Z" fill="#292949"/>
<path d="M137.178 33.237C137.089 32.9608 137.019 32.6781 136.97 32.3919C137.237 32.4717 137.524 32.4817 137.796 32.4205C137.788 32.2542 137.78 32.088 137.772 31.9217C137.766 31.7833 139.602 31.5902 139.751 31.5699C141.145 31.38 142.42 31.2019 143.725 31.8992C144.839 32.4949 145.582 33.4327 145.812 34.6917C146.032 35.8947 145.722 37.4969 145.084 38.5383C145.071 38.2156 145.215 37.4455 145.125 37.143C145.063 36.8383 144.944 36.5475 144.786 36.2817C144.471 35.7509 144.002 35.3149 143.471 35.0139C142.624 34.5344 141.656 34.308 140.696 34.2228C139.817 34.145 138.747 34.0867 137.896 34.3669C137.487 34.5014 137.424 34.6108 137.151 34.1986C137.103 34.1259 136.708 33.2689 136.742 33.2666C136.887 33.2567 137.033 33.2469 137.178 33.237" fill="#292949"/>
<path d="M147.214 83.7628L128.987 88.9969C128.842 89.0384 128.691 88.9549 128.649 88.81L119.458 56.8494C119.416 56.7045 119.5 56.5533 119.645 56.5117L137.872 51.2777C138.017 51.2361 138.168 51.3197 138.21 51.4645L147.401 83.4252C147.443 83.57 147.359 83.7213 147.214 83.7628" fill="#292949"/>
<path d="M144.799 79.4564L128.828 84.0423L121.259 57.7219L137.23 53.1359L144.799 79.4564Z" fill="#8CABEF"/>
<path d="M139.656 84.3564L135.79 85.4664C135.699 85.4927 135.603 85.4399 135.577 85.3483L135.276 84.3036C135.25 84.212 135.303 84.1164 135.394 84.0902L139.26 82.9802C139.352 82.9539 139.447 83.0067 139.473 83.0983L139.774 84.143C139.8 84.2345 139.747 84.3302 139.656 84.3564Z" fill="white"/>
<path d="M128.609 65.7072C128.818 66.3938 128.431 67.1202 127.744 67.3297C127.057 67.5392 126.33 67.1525 126.12 66.466C125.911 65.7792 126.298 65.0528 126.985 64.8433C127.672 64.6337 128.399 65.0205 128.609 65.7072Z" fill="white"/>
<path d="M133.627 64.177C133.836 64.8636 133.449 65.5902 132.762 65.7997C132.075 66.0091 131.348 65.6223 131.138 64.9358C130.929 64.2491 131.316 63.5226 132.003 63.3131C132.69 63.1036 133.417 63.4903 133.627 64.177Z" fill="white"/>
<path d="M138.644 62.6469C138.854 63.3334 138.467 64.06 137.78 64.2695C137.093 64.4791 136.366 64.0922 136.156 63.4056C135.947 62.7191 136.334 61.9925 137.021 61.783C137.708 61.5734 138.435 61.9603 138.644 62.6469Z" fill="white"/>
<path d="M130.191 70.8902C130.401 71.5769 130.014 72.3033 129.327 72.5128C128.64 72.7224 127.913 72.3356 127.703 71.6489C127.493 70.9623 127.881 70.2359 128.568 70.0264C129.255 69.8169 129.982 70.2036 130.191 70.8902Z" fill="white"/>
<path d="M135.209 69.3602C135.419 70.0467 135.032 70.7731 134.345 70.9827C133.658 71.1922 132.931 70.8055 132.721 70.1189C132.511 69.4322 132.898 68.7058 133.585 68.4963C134.273 68.2867 135 68.6734 135.209 69.3602Z" fill="white"/>
<path d="M140.227 67.83C140.437 68.5166 140.05 69.2431 139.363 69.4526C138.676 69.6622 137.949 69.2753 137.739 68.5887C137.529 67.902 137.916 67.1756 138.604 66.9661C139.291 66.7565 140.018 67.1433 140.227 67.83" fill="white"/>
<path d="M131.774 76.0733C131.984 76.76 131.597 77.4864 130.91 77.6959C130.223 77.9055 129.496 77.5188 129.286 76.832C129.076 76.1455 129.463 75.419 130.15 75.2095C130.838 75 131.565 75.3867 131.774 76.0733Z" fill="white"/>
<path d="M136.792 74.5433C137.002 75.2299 136.615 75.9563 135.928 76.1658C135.24 76.3753 134.514 75.9886 134.304 75.302C134.094 74.6153 134.481 73.8889 135.168 73.6794C135.856 73.4698 136.583 73.8566 136.792 74.5433Z" fill="white"/>
<path d="M141.81 73.0131C142.02 73.6997 141.633 74.4263 140.946 74.6356C140.258 74.8453 139.532 74.4585 139.322 73.7719C139.112 73.0852 139.499 72.3588 140.186 72.1492C140.873 71.9397 141.6 72.3264 141.81 73.0131Z" fill="white"/>
<path d="M132.855 59.1488L128.969 60.3341L128.742 59.592L132.629 58.4069L132.855 59.1488" fill="white"/>
<path d="M52.4695 25.9775L58.4829 25.7917L58.4099 23.4366L58.7514 23.4259L58.8243 25.7813L59.6066 25.757L59.5337 23.4017L60.0309 23.3864L60.1038 25.7417L60.4949 25.7295L60.422 23.3744L60.2849 23.3786L71.6529 23.0273L71.7257 25.3827L52.4695 25.9775ZM71.7759 22.8652L52.2637 23.4681L52.3463 26.1397L71.8586 25.5367L71.7759 22.8652" fill="#D67086"/>
<path d="M115.632 24.6031C115.849 25.0288 116.067 25.4544 116.285 25.88C116.388 26.0813 116.691 25.9038 116.588 25.7028C116.37 25.2772 116.153 24.8516 115.935 24.426C115.832 24.2247 115.529 24.4021 115.632 24.6031Z" fill="#305399"/>
<path d="M118.212 24.3892C118.063 24.7897 117.981 25.2041 117.959 25.6306C117.947 25.8564 118.299 25.8558 118.31 25.6306C118.331 25.2341 118.413 24.8544 118.551 24.4825C118.63 24.2705 118.291 24.1789 118.212 24.3892Z" fill="#305399"/>
<path d="M114.382 27.2631C114.701 27.3423 115.02 27.4217 115.339 27.5009C115.558 27.5556 115.652 27.217 115.432 27.1625C115.113 27.0831 114.794 27.0039 114.475 26.9245C114.256 26.87 114.162 27.2084 114.382 27.2631" fill="#305399"/>
<path d="M115.512 29.933C115.743 29.6872 115.975 29.4412 116.207 29.1955C116.362 29.0311 116.114 28.7824 115.959 28.9472C115.727 29.193 115.495 29.4389 115.263 29.6848C115.108 29.8491 115.356 30.0978 115.512 29.933Z" fill="#305399"/>
<path d="M117.465 29.8723C117.592 30.188 117.719 30.5037 117.846 30.8194C117.929 31.0264 118.269 30.9359 118.185 30.7261C118.058 30.4103 117.931 30.0947 117.804 29.7791C117.72 29.572 117.38 29.6623 117.465 29.8723Z" fill="#305399"/>
<path d="M119.172 28.7913C119.451 28.8675 119.732 28.9439 120.011 29.0203C120.23 29.0799 120.323 28.7413 120.105 28.6817C119.825 28.6053 119.545 28.5291 119.265 28.4527C119.047 28.3931 118.953 28.7317 119.172 28.7913Z" fill="#305399"/>
<path d="M119.417 26.5956C119.778 26.4419 120.14 26.2881 120.501 26.1342C120.708 26.0459 120.529 25.7434 120.324 25.8311C119.962 25.9848 119.601 26.1388 119.24 26.2925C119.033 26.3808 119.211 26.6833 119.417 26.5956Z" fill="#305399"/>
<path d="M41.8368 70.4992C41.5847 69.935 40.9535 69.5712 40.3562 69.8058C40.0949 69.9083 40.209 70.335 40.4734 70.2306C40.9217 70.0539 41.3674 70.38 41.485 70.8158C41.6013 71.2464 41.4318 71.7234 41.2734 72.1186C41.0187 72.7536 40.7061 73.3692 40.3842 73.9722C40.056 74.5867 39.704 75.1884 39.3343 75.7789C38.9613 76.375 38.5858 77.0086 38.0239 77.4469C37.4819 77.8695 36.6707 78.0839 36.0829 77.6222C35.4543 77.1283 35.6365 76.1748 35.8298 75.5131C36.2266 74.1539 36.9148 72.9208 37.7371 71.7762C37.8517 71.617 37.5885 71.4114 37.4631 71.565C36.8214 72.3517 36.2985 73.2216 35.8953 74.1533C35.5536 74.9426 35.1835 75.8519 35.2403 76.7294C35.3453 78.355 37.1238 78.6742 38.2647 77.803C38.9925 77.2469 39.4696 76.3892 39.9379 75.622C40.4727 74.7459 40.9663 73.8441 41.3982 72.9128C41.7297 72.1983 42.1911 71.2928 41.8368 70.4992" fill="#2F3789"/>
<path d="M38.5225 71.097C38.7835 71.6572 39.4203 72.011 40.0139 71.767C40.2735 71.6603 40.1526 71.2356 39.8899 71.3441C39.4444 71.5278 38.9938 71.2088 38.8693 70.775C38.7461 70.3463 38.9081 69.8666 39.0602 69.4689C39.3049 68.8302 39.6077 68.2097 39.9201 67.6016C40.2384 66.9819 40.581 66.3748 40.9413 65.7786C41.305 65.1767 41.6704 64.5373 42.2252 64.0901C42.7606 63.6591 43.5682 63.4319 44.1632 63.8842C44.7996 64.3681 44.6324 65.3244 44.4496 65.9891C44.0742 67.3544 43.4056 68.5983 42.6014 69.7556C42.4895 69.9167 42.7559 70.1181 42.8788 69.9625C43.508 69.1658 44.017 68.2878 44.4055 67.3498C44.7347 66.5552 45.0904 65.6402 45.0199 64.7636C44.8892 63.14 43.1058 62.8487 41.9789 63.738C41.2598 64.3053 40.7963 65.1703 40.3402 65.9448C39.8194 66.8292 39.3401 67.7389 38.923 68.6767C38.6027 69.3964 38.1557 70.3091 38.5225 71.097" fill="#2F3789"/>
<path d="M142.054 66.207C142.005 66.2326 141.954 66.2614 141.929 66.3108C141.902 66.3661 141.916 66.4322 141.932 66.4922C141.971 66.6495 142.011 66.8069 142.051 66.9644C142.048 66.9553 142.561 66.8955 142.646 66.9752C142.87 67.1828 142.676 67.4705 142.508 67.633C142.198 67.9341 141.887 68.235 141.577 68.5359C141.733 68.7441 141.889 68.952 142.045 69.1602C142.088 69.2174 142.131 69.2753 142.189 69.3183C142.878 69.835 143.818 68.7286 144.121 68.2417C144.422 67.7586 144.618 67.218 144.783 66.6731C144.797 66.627 144.81 66.5776 144.797 66.5314C144.781 66.4762 144.73 66.4395 144.683 66.4067C144.326 66.1586 143.871 65.6108 143.415 65.5925C142.973 65.5748 142.428 66.0114 142.054 66.207" fill="#EAC5B0"/>
<path d="M147.084 59.2959C147.145 59.874 147.149 60.4539 146.9 60.9558C146.299 62.1636 145.44 63.2287 144.508 64.1965C144.134 64.5851 143.619 64.8276 143.215 65.185C142.994 65.3804 142.737 65.5715 142.83 65.8604C142.921 66.1431 143.532 66.5462 143.751 66.7561C143.907 66.9048 144.301 67.4765 144.501 67.5051C144.758 67.542 145.212 67.0789 145.411 66.9323C146.032 66.4742 146.633 65.9897 147.21 65.4765C149.033 63.8554 150.141 61.8998 151.686 60.0612C151.913 59.7906 152.149 59.5014 152.205 59.1522C152.249 58.8744 152.173 58.5931 152.097 58.3222C151.33 55.5811 150.563 52.84 149.797 50.0989C149.434 48.8 149.032 47.435 148.057 46.502C147.683 46.1439 147.131 45.8537 146.661 46.072C146.086 46.3394 146.051 47.1298 146.102 47.7616C146.289 50.0664 146.477 52.3711 146.664 54.6759C146.757 55.8283 146.851 56.9808 146.945 58.1331C146.975 58.5026 147.042 58.8989 147.084 59.2959" fill="#2F3789"/>
</g>
<defs>
<filter id="filter0_d" x="-4" y="0" width="180" height="133" filterUnits="userSpaceOnUse" color-interpolation-filters="sRGB">
<feFlood flood-opacity="0" result="BackgroundImageFix"/>
<feColorMatrix in="SourceAlpha" type="matrix" values="0 0 0 0 0 0 0 0 0 0 0 0 0 0 0 0 0 0 127 0"/>
<feOffset dy="4"/>
<feGaussianBlur stdDeviation="2"/>
<feColorMatrix type="matrix" values="0 0 0 0 0 0 0 0 0 0 0 0 0 0 0 0 0 0 0.25 0"/>
<feBlend mode="normal" in2="BackgroundImageFix" result="effect1_dropShadow"/>
<feBlend mode="normal" in="SourceGraphic" in2="effect1_dropShadow" result="shape"/>
</filter>
</defs>
</svg>
