<svg width="164" height="164" viewBox="0 0 164 164" fill="none" xmlns="http://www.w3.org/2000/svg">
<g filter="url(#filter0_d)">
<path d="M160 77.9982C160 102.694 148.522 124.71 130.612 139C126.691 142.133 122.463 144.89 117.98 147.224C107.215 152.83 94.9788 156 82.0018 156C69.0249 156 56.785 152.83 46.0204 147.224C44.5892 146.48 43.1856 145.692 41.8087 144.86C38.2633 142.725 34.9005 140.316 31.7543 137.657C31.5751 137.508 31.3957 137.356 31.2199 137.2C29.3491 135.597 27.5526 133.902 25.8409 132.126C25.3031 131.568 24.7754 131.006 24.2578 130.431C24.1563 130.323 24.0548 130.211 23.9567 130.099C21.6697 127.555 19.5488 124.862 17.6101 122.031C9.02369 109.501 4 94.3349 4 77.9982C4 34.9193 38.9227 0 82.0018 0C125.077 0 160 34.9193 160 77.9982Z" fill="#242549"/>
<path d="M43.5686 62.4683L58.2545 60.8449L43.5686 59.2212L41.9449 44.5356L40.3215 59.2212L25.6356 60.8449L40.3215 62.4683L41.9449 77.1542L43.5686 62.4683Z" fill="white"/>
<path d="M140.866 86.7494L155.552 85.126L140.866 83.5024L139.242 68.8164L137.619 83.5024L122.933 85.126L137.619 86.7494L139.242 101.435L140.866 86.7494Z" fill="white"/>
<path d="M83.3549 134.111L98.0409 132.488L83.3549 130.864L81.7313 116.179L80.1079 130.864L65.4219 132.488L80.1079 134.111L81.7313 148.797L83.3549 134.111Z" fill="white"/>
<path d="M50.8096 105.705L53.042 107.937L55.2744 105.705L53.042 103.472L50.8096 105.705Z" fill="white"/>
<path d="M60.8235 25.3143L63.0559 27.5467L65.2883 25.3143L63.0559 23.0819L60.8235 25.3143Z" fill="white"/>
<path d="M114.751 98.3861L116.983 100.619L119.216 98.3861L116.983 96.1537L114.751 98.3861Z" fill="white"/>
<path d="M121.718 130.863L123.95 133.095L126.183 130.863L123.95 128.63L121.718 130.863Z" fill="white"/>
<path d="M68.0635 15.8394L70.2959 18.0718L72.5283 15.8394L70.2959 13.6069L68.0635 15.8394Z" fill="white"/>
<path d="M23.4103 88.9135L25.6428 91.1459L27.8752 88.9135L25.6428 86.6811L23.4103 88.9135Z" fill="white"/>
<path d="M140.663 60.7006L142.896 62.933L145.128 60.7006L142.896 58.4681L140.663 60.7006Z" fill="white"/>
<path d="M80.7407 52.0708L66.0788 51.4596L34.3112 80.173L65.1623 83.5328" fill="#5A66D7"/>
<path d="M111.523 82.8521L112.134 97.5143L83.4204 129.282L80.0606 98.4305" fill="#5A66D7"/>
<path d="M119.316 80.0186C118.867 80.4674 118.413 80.9119 117.964 81.3519C104.979 93.9336 90.5827 102.282 78.3081 105.228C75.7926 105.837 73.3642 106.213 71.0596 106.355C70.2671 103.116 68.6084 100.046 66.0791 97.5171C63.5454 94.9833 60.4756 93.3246 57.2359 92.5318C57.3733 90.2774 57.7353 87.9176 58.3175 85.4667C61.227 73.1549 69.5934 58.6764 82.2395 45.6273C82.6791 45.1785 83.1237 44.7248 83.5728 44.2757C85.818 42.0304 88.1044 39.9183 90.4273 37.9342C109.919 21.2657 131.407 14.026 143.719 19.8772C149.571 32.1887 142.327 53.6734 125.657 73.1643C123.673 75.4872 121.561 77.7733 119.316 80.0186Z" fill="#E6E6E6"/>
<path d="M100.255 47.7622C98.0287 49.8423 95.788 52.0004 93.5428 54.2456C93.094 54.6945 92.6494 55.1481 92.2049 55.5927C79.4488 68.5318 69.3734 81.3016 63.8427 90.9922C63.1599 92.1881 62.5509 93.3291 62.0097 94.4196C60.493 93.5628 58.8849 92.9352 57.2353 92.5318C57.373 90.2777 57.7347 87.9176 58.3166 85.4664C61.2264 73.1549 69.5925 58.6761 82.2389 45.627C82.6785 45.1781 83.1231 44.7245 83.5722 44.2754C85.8174 42.0301 88.1038 39.918 90.4267 37.9339C109.918 21.2647 131.407 14.0257 143.719 19.8769C136.475 19.0932 118.959 30.3051 100.255 47.7622Z" fill="#CCCCCC"/>
<path d="M78.3081 105.228C75.7926 105.837 73.3642 106.213 71.0596 106.355C70.2671 103.116 68.6084 100.046 66.0791 97.5171C63.5454 94.9833 60.4756 93.3246 57.2359 92.5318C57.3733 90.2774 57.7353 87.9176 58.3175 85.4667L58.4458 85.3658L78.3081 105.228Z" fill="#F27188"/>
<path d="M119.316 80.0185C118.867 80.4673 118.413 80.9119 117.964 81.3519L82.2388 45.6273C82.6785 45.1784 83.123 44.7248 83.5721 44.2757C85.8174 42.0304 88.1038 39.9183 90.4267 37.9342L125.657 73.164C123.673 75.4872 121.561 77.7733 119.316 80.0185Z" fill="#F27188"/>
<path d="M61.5381 132.525C57.7627 136.301 49.9073 140.803 41.8084 144.86C38.263 142.725 34.9002 140.316 31.754 137.657L34.1964 134.657L31.2193 137.201C29.3485 135.597 27.5521 133.902 25.8403 132.126C25.3026 131.568 24.7748 131.006 24.2572 130.431L24.954 129.41L23.9561 130.1C21.6692 127.556 19.5482 124.863 17.6095 122.031C23.5229 109.734 31.0669 102.051 31.0669 102.051C39.4806 93.6378 53.1242 93.6378 61.5375 102.051C69.9515 110.468 69.9515 124.112 61.5381 132.525Z" fill="#F27188"/>
<path d="M55.1768 107.681C49.1821 101.686 37.6929 119.17 35.9446 126.913C35.9446 126.913 61.9098 119.512 55.1768 107.681Z" fill="#F9B55A"/>
<path d="M77.5808 89.6756C66.6611 100.595 62.0153 103.6 61.0031 102.588C59.9909 101.576 62.9957 96.9299 73.9154 86.0102C84.8351 75.0905 94.5077 67.059 95.5199 68.0711C96.5321 69.0833 88.5005 78.7562 77.5808 89.6756Z" fill="#1AA5E2"/>
</g>
<defs>
<filter id="filter0_d" x="0" y="0" width="164" height="164" filterUnits="userSpaceOnUse" color-interpolation-filters="sRGB">
<feFlood flood-opacity="0" result="BackgroundImageFix"/>
<feColorMatrix in="SourceAlpha" type="matrix" values="0 0 0 0 0 0 0 0 0 0 0 0 0 0 0 0 0 0 127 0"/>
<feOffset dy="4"/>
<feGaussianBlur stdDeviation="2"/>
<feColorMatrix type="matrix" values="0 0 0 0 0 0 0 0 0 0 0 0 0 0 0 0 0 0 0.25 0"/>
<feBlend mode="normal" in2="BackgroundImageFix" result="effect1_dropShadow"/>
<feBlend mode="normal" in="SourceGraphic" in2="effect1_dropShadow" result="shape"/>
</filter>
</defs>
</svg>
